<mxfile host="app.diagrams.net" agent="Mozilla/5.0 (Windows NT 10.0; Win64; x64) AppleWebKit/537.36 (KHTML, like Gecko) Chrome/141.0.0.0 Safari/537.36" version="28.2.7">
  <diagram name="Page-1" id="7Sfjw_FPZI5gSOaeDQip">
    <mxGraphModel dx="2491" dy="1329" grid="1" gridSize="10" guides="1" tooltips="1" connect="1" arrows="1" fold="1" page="1" pageScale="1" pageWidth="827" pageHeight="1169" math="0" shadow="0">
      <root>
        <mxCell id="0" />
        <mxCell id="1" parent="0" />
        <mxCell id="2ldc7DW3vHpx0UhSFPCV-1" value="" style="verticalLabelPosition=bottom;html=1;verticalAlign=top;align=center;strokeWidth=1;shape=mxgraph.floorplan.desk_corner_2;rounded=0;shadow=0;comic=0;fontFamily=Verdana;fontSize=12;flipH=1;flipV=1;" vertex="1" parent="1">
          <mxGeometry x="1919" y="617.0000000000001" width="192" height="97" as="geometry" />
        </mxCell>
        <mxCell id="2ldc7DW3vHpx0UhSFPCV-2" value="" style="verticalLabelPosition=bottom;html=1;verticalAlign=top;align=center;strokeWidth=1;shape=mxgraph.floorplan.office_chair;shadow=0;rounded=0;comic=0;fontFamily=Verdana;fontSize=12;" vertex="1" parent="1">
          <mxGeometry x="120" y="1149" width="40" height="43" as="geometry" />
        </mxCell>
        <mxCell id="2ldc7DW3vHpx0UhSFPCV-3" value="" style="shape=rect;shadow=0;rounded=0;comic=0;fontFamily=Verdana;fontSize=12;align=center;html=1;" vertex="1" parent="1">
          <mxGeometry x="30" y="1169" width="300" height="50" as="geometry" />
        </mxCell>
        <mxCell id="2ldc7DW3vHpx0UhSFPCV-4" value="" style="verticalLabelPosition=bottom;html=1;verticalAlign=top;align=center;strokeWidth=1;shape=mxgraph.floorplan.office_chair;shadow=0;rounded=0;comic=0;fontFamily=Verdana;fontSize=12;" vertex="1" parent="1">
          <mxGeometry x="1269" y="1060" width="40" height="43" as="geometry" />
        </mxCell>
        <mxCell id="2ldc7DW3vHpx0UhSFPCV-5" value="" style="verticalLabelPosition=bottom;html=1;verticalAlign=top;align=center;strokeWidth=1;shape=mxgraph.floorplan.office_chair;shadow=0;direction=west;rounded=0;comic=0;fontFamily=Verdana;fontSize=12;" vertex="1" parent="1">
          <mxGeometry x="1269" y="1157" width="40" height="43" as="geometry" />
        </mxCell>
        <mxCell id="2ldc7DW3vHpx0UhSFPCV-6" value="" style="verticalLabelPosition=bottom;html=1;verticalAlign=top;align=center;strokeWidth=1;shape=mxgraph.floorplan.office_chair;shadow=0;direction=north;rounded=0;comic=0;fontFamily=Verdana;fontSize=12;" vertex="1" parent="1">
          <mxGeometry x="1219" y="1110" width="43" height="40" as="geometry" />
        </mxCell>
        <mxCell id="2ldc7DW3vHpx0UhSFPCV-7" value="" style="verticalLabelPosition=bottom;html=1;verticalAlign=top;align=center;strokeWidth=1;shape=mxgraph.floorplan.office_chair;shadow=0;direction=south;rounded=0;comic=0;fontFamily=Verdana;fontSize=12;" vertex="1" parent="1">
          <mxGeometry x="1496" y="1110" width="43" height="40" as="geometry" />
        </mxCell>
        <mxCell id="2ldc7DW3vHpx0UhSFPCV-8" value="" style="verticalLabelPosition=bottom;html=1;verticalAlign=top;align=center;strokeWidth=1;shape=mxgraph.floorplan.office_chair;shadow=0;rounded=0;comic=0;fontFamily=Verdana;fontSize=12;" vertex="1" parent="1">
          <mxGeometry x="1329" y="1060" width="40" height="43" as="geometry" />
        </mxCell>
        <mxCell id="2ldc7DW3vHpx0UhSFPCV-9" value="" style="verticalLabelPosition=bottom;html=1;verticalAlign=top;align=center;strokeWidth=1;shape=mxgraph.floorplan.office_chair;shadow=0;direction=west;rounded=0;comic=0;fontFamily=Verdana;fontSize=12;" vertex="1" parent="1">
          <mxGeometry x="1329" y="1157" width="40" height="43" as="geometry" />
        </mxCell>
        <mxCell id="2ldc7DW3vHpx0UhSFPCV-10" value="" style="verticalLabelPosition=bottom;html=1;verticalAlign=top;align=center;strokeWidth=1;shape=mxgraph.floorplan.office_chair;shadow=0;rounded=0;comic=0;fontFamily=Verdana;fontSize=12;" vertex="1" parent="1">
          <mxGeometry x="1389" y="1060" width="40" height="43" as="geometry" />
        </mxCell>
        <mxCell id="2ldc7DW3vHpx0UhSFPCV-11" value="" style="verticalLabelPosition=bottom;html=1;verticalAlign=top;align=center;strokeWidth=1;shape=mxgraph.floorplan.office_chair;shadow=0;direction=west;rounded=0;comic=0;fontFamily=Verdana;fontSize=12;" vertex="1" parent="1">
          <mxGeometry x="1389" y="1157" width="40" height="43" as="geometry" />
        </mxCell>
        <mxCell id="2ldc7DW3vHpx0UhSFPCV-12" value="" style="verticalLabelPosition=bottom;html=1;verticalAlign=top;align=center;strokeWidth=1;shape=mxgraph.floorplan.office_chair;shadow=0;rounded=0;comic=0;fontFamily=Verdana;fontSize=12;" vertex="1" parent="1">
          <mxGeometry x="1449" y="1060" width="40" height="43" as="geometry" />
        </mxCell>
        <mxCell id="2ldc7DW3vHpx0UhSFPCV-13" value="" style="verticalLabelPosition=bottom;html=1;verticalAlign=top;align=center;strokeWidth=1;shape=mxgraph.floorplan.office_chair;shadow=0;direction=west;rounded=0;comic=0;fontFamily=Verdana;fontSize=12;" vertex="1" parent="1">
          <mxGeometry x="1449" y="1157" width="40" height="43" as="geometry" />
        </mxCell>
        <mxCell id="2ldc7DW3vHpx0UhSFPCV-14" value="" style="shape=ellipse;fillColor=#ffffff;strokeColor=#000000;shadow=0;rounded=0;comic=0;fontFamily=Verdana;fontSize=12;align=center;html=1;" vertex="1" parent="1">
          <mxGeometry x="1239" y="1080" width="280" height="100" as="geometry" />
        </mxCell>
        <mxCell id="2ldc7DW3vHpx0UhSFPCV-15" value="" style="group" vertex="1" connectable="0" parent="1">
          <mxGeometry x="543" y="1149" width="80" height="70" as="geometry" />
        </mxCell>
        <mxCell id="2ldc7DW3vHpx0UhSFPCV-16" value="" style="verticalLabelPosition=bottom;html=1;verticalAlign=top;align=center;strokeWidth=1;shape=mxgraph.floorplan.office_chair;shadow=0;rounded=0;comic=0;fontFamily=Verdana;fontSize=12;" vertex="1" parent="2ldc7DW3vHpx0UhSFPCV-15">
          <mxGeometry x="20" width="40" height="43" as="geometry" />
        </mxCell>
        <mxCell id="2ldc7DW3vHpx0UhSFPCV-17" value="" style="shape=rect;shadow=0;rounded=0;comic=0;fontFamily=Verdana;fontSize=12;align=center;html=1;" vertex="1" parent="2ldc7DW3vHpx0UhSFPCV-15">
          <mxGeometry y="20" width="80" height="50" as="geometry" />
        </mxCell>
        <mxCell id="2ldc7DW3vHpx0UhSFPCV-18" value="" style="verticalLabelPosition=bottom;html=1;verticalAlign=top;align=center;strokeWidth=1;shape=mxgraph.floorplan.workstation;shadow=0;flipV=1;rounded=0;comic=0;fontFamily=Verdana;fontSize=12;" vertex="1" parent="2ldc7DW3vHpx0UhSFPCV-15">
          <mxGeometry x="15" y="30" width="50" height="40" as="geometry" />
        </mxCell>
        <mxCell id="2ldc7DW3vHpx0UhSFPCV-19" value="" style="group;rotation=90;" vertex="1" connectable="0" parent="1">
          <mxGeometry x="25" y="724.0000000000001" width="80" height="70" as="geometry" />
        </mxCell>
        <mxCell id="2ldc7DW3vHpx0UhSFPCV-20" value="" style="verticalLabelPosition=bottom;html=1;verticalAlign=top;align=center;strokeWidth=1;shape=mxgraph.floorplan.office_chair;shadow=0;rounded=0;comic=0;fontFamily=Verdana;fontSize=12;rotation=90;" vertex="1" parent="2ldc7DW3vHpx0UhSFPCV-19">
          <mxGeometry x="34" y="14" width="40" height="43" as="geometry" />
        </mxCell>
        <mxCell id="2ldc7DW3vHpx0UhSFPCV-21" value="" style="shape=rect;shadow=0;rounded=0;comic=0;fontFamily=Verdana;fontSize=12;align=center;html=1;rotation=90;" vertex="1" parent="2ldc7DW3vHpx0UhSFPCV-19">
          <mxGeometry x="-10" y="10" width="80" height="50" as="geometry" />
        </mxCell>
        <mxCell id="2ldc7DW3vHpx0UhSFPCV-22" value="" style="verticalLabelPosition=bottom;html=1;verticalAlign=top;align=center;strokeWidth=1;shape=mxgraph.floorplan.workstation;shadow=0;flipV=1;rounded=0;comic=0;fontFamily=Verdana;fontSize=12;rotation=90;" vertex="1" parent="2ldc7DW3vHpx0UhSFPCV-19">
          <mxGeometry y="15" width="50" height="40" as="geometry" />
        </mxCell>
        <mxCell id="2ldc7DW3vHpx0UhSFPCV-23" value="" style="group;rotation=180;" vertex="1" connectable="0" parent="1">
          <mxGeometry x="1957" y="30.000000000000114" width="80" height="70" as="geometry" />
        </mxCell>
        <mxCell id="2ldc7DW3vHpx0UhSFPCV-24" value="" style="verticalLabelPosition=bottom;html=1;verticalAlign=top;align=center;strokeWidth=1;shape=mxgraph.floorplan.office_chair;shadow=0;rounded=0;comic=0;fontFamily=Verdana;fontSize=12;rotation=180;" vertex="1" parent="2ldc7DW3vHpx0UhSFPCV-23">
          <mxGeometry x="20" y="28" width="40" height="43" as="geometry" />
        </mxCell>
        <mxCell id="2ldc7DW3vHpx0UhSFPCV-25" value="" style="shape=rect;shadow=0;rounded=0;comic=0;fontFamily=Verdana;fontSize=12;align=center;html=1;rotation=180;" vertex="1" parent="2ldc7DW3vHpx0UhSFPCV-23">
          <mxGeometry width="80" height="50" as="geometry" />
        </mxCell>
        <mxCell id="2ldc7DW3vHpx0UhSFPCV-26" value="" style="verticalLabelPosition=bottom;html=1;verticalAlign=top;align=center;strokeWidth=1;shape=mxgraph.floorplan.workstation;shadow=0;flipV=1;rounded=0;comic=0;fontFamily=Verdana;fontSize=12;rotation=180;" vertex="1" parent="2ldc7DW3vHpx0UhSFPCV-23">
          <mxGeometry x="15" width="50" height="40" as="geometry" />
        </mxCell>
        <mxCell id="2ldc7DW3vHpx0UhSFPCV-27" value="" style="verticalLabelPosition=bottom;html=1;verticalAlign=top;align=center;strokeWidth=1;shape=mxgraph.floorplan.office_chair;shadow=0;rounded=0;comic=0;fontFamily=Verdana;fontSize=12;" vertex="1" parent="1">
          <mxGeometry x="661" y="476.0000000000001" width="40" height="43" as="geometry" />
        </mxCell>
        <mxCell id="2ldc7DW3vHpx0UhSFPCV-28" value="" style="verticalLabelPosition=bottom;html=1;verticalAlign=top;align=center;strokeWidth=1;shape=mxgraph.floorplan.office_chair;shadow=0;direction=west;rounded=0;comic=0;fontFamily=Verdana;fontSize=12;" vertex="1" parent="1">
          <mxGeometry x="661" y="573.0000000000001" width="40" height="43" as="geometry" />
        </mxCell>
        <mxCell id="2ldc7DW3vHpx0UhSFPCV-29" value="" style="verticalLabelPosition=bottom;html=1;verticalAlign=top;align=center;strokeWidth=1;shape=mxgraph.floorplan.office_chair;shadow=0;direction=north;rounded=0;comic=0;fontFamily=Verdana;fontSize=12;" vertex="1" parent="1">
          <mxGeometry x="611" y="526.0000000000001" width="43" height="40" as="geometry" />
        </mxCell>
        <mxCell id="2ldc7DW3vHpx0UhSFPCV-30" value="" style="verticalLabelPosition=bottom;html=1;verticalAlign=top;align=center;strokeWidth=1;shape=mxgraph.floorplan.office_chair;shadow=0;direction=south;rounded=0;comic=0;fontFamily=Verdana;fontSize=12;" vertex="1" parent="1">
          <mxGeometry x="708" y="526.0000000000001" width="43" height="40" as="geometry" />
        </mxCell>
        <mxCell id="2ldc7DW3vHpx0UhSFPCV-31" value="" style="shape=rect;shadow=0;rounded=0;comic=0;fontFamily=Verdana;fontSize=12;align=center;html=1;" vertex="1" parent="1">
          <mxGeometry x="631" y="496.0000000000001" width="100" height="100" as="geometry" />
        </mxCell>
        <mxCell id="2ldc7DW3vHpx0UhSFPCV-32" value="" style="verticalLabelPosition=bottom;html=1;verticalAlign=top;align=center;strokeWidth=1;shape=mxgraph.floorplan.office_chair;fillColor=#ffffff;strokeColor=#000000;shadow=0;rounded=0;comic=0;fontFamily=Verdana;fontSize=12;" vertex="1" parent="1">
          <mxGeometry x="661" y="716.0000000000001" width="40" height="43" as="geometry" />
        </mxCell>
        <mxCell id="2ldc7DW3vHpx0UhSFPCV-33" value="" style="verticalLabelPosition=bottom;html=1;verticalAlign=top;align=center;strokeWidth=1;shape=mxgraph.floorplan.office_chair;fillColor=#ffffff;strokeColor=#000000;shadow=0;direction=west;rounded=0;comic=0;fontFamily=Verdana;fontSize=12;" vertex="1" parent="1">
          <mxGeometry x="661" y="813.0000000000001" width="40" height="43" as="geometry" />
        </mxCell>
        <mxCell id="2ldc7DW3vHpx0UhSFPCV-34" value="" style="verticalLabelPosition=bottom;html=1;verticalAlign=top;align=center;strokeWidth=1;shape=mxgraph.floorplan.office_chair;fillColor=#ffffff;strokeColor=#000000;shadow=0;direction=north;rounded=0;comic=0;fontFamily=Verdana;fontSize=12;" vertex="1" parent="1">
          <mxGeometry x="611" y="766.0000000000001" width="43" height="40" as="geometry" />
        </mxCell>
        <mxCell id="2ldc7DW3vHpx0UhSFPCV-35" value="" style="verticalLabelPosition=bottom;html=1;verticalAlign=top;align=center;strokeWidth=1;shape=mxgraph.floorplan.office_chair;fillColor=#ffffff;strokeColor=#000000;shadow=0;direction=south;rounded=0;comic=0;fontFamily=Verdana;fontSize=12;" vertex="1" parent="1">
          <mxGeometry x="708" y="766.0000000000001" width="43" height="40" as="geometry" />
        </mxCell>
        <mxCell id="2ldc7DW3vHpx0UhSFPCV-36" value="" style="shape=rect;shadow=0;rounded=0;comic=0;fontFamily=Verdana;fontSize=12;align=center;html=1;" vertex="1" parent="1">
          <mxGeometry x="631" y="736.0000000000001" width="100" height="100" as="geometry" />
        </mxCell>
        <mxCell id="2ldc7DW3vHpx0UhSFPCV-37" value="" style="verticalLabelPosition=bottom;html=1;verticalAlign=top;align=center;strokeWidth=1;shape=mxgraph.floorplan.doorRight;rounded=0;shadow=0;comic=0;fontFamily=Verdana;fontSize=12;" vertex="1" parent="1">
          <mxGeometry x="320" y="1027" width="80" height="85" as="geometry" />
        </mxCell>
        <mxCell id="2ldc7DW3vHpx0UhSFPCV-38" value="" style="verticalLabelPosition=bottom;html=1;verticalAlign=top;align=center;strokeWidth=1;shape=mxgraph.floorplan.doorLeft;rounded=0;shadow=0;comic=0;fontFamily=Verdana;fontSize=12;" vertex="1" parent="1">
          <mxGeometry x="423" y="1028" width="80" height="85" as="geometry" />
        </mxCell>
        <mxCell id="2ldc7DW3vHpx0UhSFPCV-39" value="" style="verticalLabelPosition=bottom;html=1;verticalAlign=top;align=center;strokeWidth=1;shape=mxgraph.floorplan.doorLeft;rounded=0;shadow=0;comic=0;fontFamily=Verdana;fontSize=12;" vertex="1" parent="1">
          <mxGeometry x="871" y="1028" width="80" height="85" as="geometry" />
        </mxCell>
        <mxCell id="2ldc7DW3vHpx0UhSFPCV-40" value="" style="verticalLabelPosition=bottom;html=1;verticalAlign=top;align=center;strokeWidth=1;shape=mxgraph.floorplan.wallCorner;fillColor=#000000;rounded=0;shadow=0;comic=0;fontFamily=Verdana;fontSize=12;" vertex="1" parent="1">
          <mxGeometry x="20" y="20.000000000000114" width="100" height="385" as="geometry" />
        </mxCell>
        <mxCell id="2ldc7DW3vHpx0UhSFPCV-41" value="" style="verticalLabelPosition=bottom;html=1;verticalAlign=top;align=center;strokeWidth=1;shape=mxgraph.floorplan.wallU;fillColor=#000000;rounded=0;shadow=0;comic=0;fontFamily=Verdana;fontSize=12;rotation=90;" vertex="1" parent="1">
          <mxGeometry x="648" y="-602.9999999999999" width="1210" height="2456" as="geometry" />
        </mxCell>
        <mxCell id="2ldc7DW3vHpx0UhSFPCV-42" value="" style="verticalLabelPosition=bottom;html=1;verticalAlign=top;align=center;strokeWidth=1;shape=mxgraph.floorplan.wallU;fillColor=#000000;rounded=0;shadow=0;comic=0;fontFamily=Verdana;fontSize=12;rotation=90;" vertex="1" parent="1">
          <mxGeometry x="416" y="479.0000000000001" width="481" height="335" as="geometry" />
        </mxCell>
        <mxCell id="2ldc7DW3vHpx0UhSFPCV-43" value="" style="verticalLabelPosition=bottom;html=1;verticalAlign=top;align=center;strokeWidth=1;shape=mxgraph.floorplan.wallCorner;fillColor=#000000;direction=south;rounded=0;shadow=0;comic=0;fontFamily=Verdana;fontSize=12;" vertex="1" parent="1">
          <mxGeometry x="1901" y="408.0000000000001" width="221" height="266" as="geometry" />
        </mxCell>
        <mxCell id="2ldc7DW3vHpx0UhSFPCV-44" value="" style="verticalLabelPosition=bottom;html=1;verticalAlign=top;align=center;strokeWidth=1;shape=mxgraph.floorplan.wallCorner;fillColor=#000000;direction=west;rounded=0;shadow=0;comic=0;fontFamily=Verdana;fontSize=12;" vertex="1" parent="1">
          <mxGeometry x="1680" y="670.0000000000001" width="442" height="142" as="geometry" />
        </mxCell>
        <mxCell id="2ldc7DW3vHpx0UhSFPCV-45" value="" style="verticalLabelPosition=bottom;html=1;verticalAlign=top;align=center;strokeWidth=1;shape=mxgraph.floorplan.wallCorner;fillColor=#000000;direction=north;rounded=0;shadow=0;comic=0;fontFamily=Verdana;fontSize=12;" vertex="1" parent="1">
          <mxGeometry x="1500" y="414.0000000000001" width="186" height="398" as="geometry" />
        </mxCell>
        <mxCell id="2ldc7DW3vHpx0UhSFPCV-46" value="" style="verticalLabelPosition=bottom;html=1;verticalAlign=top;align=center;strokeWidth=1;shape=mxgraph.floorplan.doorDouble;rounded=0;shadow=0;comic=0;fontFamily=Verdana;fontSize=12;rotation=-90;" vertex="1" parent="1">
          <mxGeometry x="-15" y="443.0000000000001" width="160" height="85" as="geometry" />
        </mxCell>
        <mxCell id="2ldc7DW3vHpx0UhSFPCV-47" value="" style="verticalLabelPosition=bottom;html=1;verticalAlign=top;align=center;strokeWidth=1;shape=mxgraph.floorplan.wall;fillColor=#000000;rounded=0;shadow=0;comic=0;fontFamily=Verdana;fontSize=12;" vertex="1" parent="1">
          <mxGeometry x="21" y="801.0000000000001" width="204" height="10" as="geometry" />
        </mxCell>
        <mxCell id="2ldc7DW3vHpx0UhSFPCV-48" value="" style="verticalLabelPosition=bottom;html=1;verticalAlign=top;align=center;strokeWidth=1;shape=mxgraph.floorplan.wall;fillColor=#000000;direction=south;rounded=0;shadow=0;comic=0;fontFamily=Verdana;fontSize=12;" vertex="1" parent="1">
          <mxGeometry x="220" y="689.0000000000001" width="10" height="246" as="geometry" />
        </mxCell>
        <mxCell id="2ldc7DW3vHpx0UhSFPCV-49" value="" style="verticalLabelPosition=bottom;html=1;verticalAlign=top;align=center;strokeWidth=1;shape=mxgraph.floorplan.wallCorner;fillColor=#000000;direction=south;rounded=0;shadow=0;comic=0;fontFamily=Verdana;fontSize=12;" vertex="1" parent="1">
          <mxGeometry x="25" y="591.0000000000001" width="205" height="17" as="geometry" />
        </mxCell>
        <mxCell id="2ldc7DW3vHpx0UhSFPCV-50" value="" style="verticalLabelPosition=bottom;html=1;verticalAlign=top;align=center;strokeWidth=1;shape=mxgraph.floorplan.doorLeft;rounded=0;shadow=0;comic=0;fontFamily=Verdana;fontSize=12;rotation=90;" vertex="1" parent="1">
          <mxGeometry x="144" y="606.0000000000001" width="80" height="85" as="geometry" />
        </mxCell>
        <mxCell id="2ldc7DW3vHpx0UhSFPCV-51" value="" style="verticalLabelPosition=bottom;html=1;verticalAlign=top;align=center;strokeWidth=1;shape=mxgraph.floorplan.dresser;rounded=0;shadow=0;comic=0;fontFamily=Verdana;fontSize=12;rotation=90;" vertex="1" parent="1">
          <mxGeometry x="137" y="718.0000000000001" width="100" height="65" as="geometry" />
        </mxCell>
        <mxCell id="2ldc7DW3vHpx0UhSFPCV-52" value="" style="verticalLabelPosition=bottom;html=1;verticalAlign=top;align=center;strokeWidth=1;shape=mxgraph.floorplan.plant;rounded=0;shadow=0;comic=0;fontFamily=Verdana;fontSize=12;" vertex="1" parent="1">
          <mxGeometry x="33" y="606.0000000000001" width="47" height="51" as="geometry" />
        </mxCell>
        <mxCell id="2ldc7DW3vHpx0UhSFPCV-53" value="" style="group;rotation=90;" vertex="1" connectable="0" parent="1">
          <mxGeometry x="26" y="817.0000000000001" width="80" height="70" as="geometry" />
        </mxCell>
        <mxCell id="2ldc7DW3vHpx0UhSFPCV-54" value="" style="verticalLabelPosition=bottom;html=1;verticalAlign=top;align=center;strokeWidth=1;shape=mxgraph.floorplan.office_chair;shadow=0;rounded=0;comic=0;fontFamily=Verdana;fontSize=12;rotation=90;" vertex="1" parent="2ldc7DW3vHpx0UhSFPCV-53">
          <mxGeometry x="34" y="14" width="40" height="43" as="geometry" />
        </mxCell>
        <mxCell id="2ldc7DW3vHpx0UhSFPCV-55" value="" style="shape=rect;shadow=0;rounded=0;comic=0;fontFamily=Verdana;fontSize=12;align=center;html=1;rotation=90;" vertex="1" parent="2ldc7DW3vHpx0UhSFPCV-53">
          <mxGeometry x="-10" y="10" width="80" height="50" as="geometry" />
        </mxCell>
        <mxCell id="2ldc7DW3vHpx0UhSFPCV-56" value="" style="verticalLabelPosition=bottom;html=1;verticalAlign=top;align=center;strokeWidth=1;shape=mxgraph.floorplan.workstation;shadow=0;flipV=1;rounded=0;comic=0;fontFamily=Verdana;fontSize=12;rotation=90;" vertex="1" parent="2ldc7DW3vHpx0UhSFPCV-53">
          <mxGeometry y="15" width="50" height="40" as="geometry" />
        </mxCell>
        <mxCell id="2ldc7DW3vHpx0UhSFPCV-57" value="" style="verticalLabelPosition=bottom;html=1;verticalAlign=top;align=center;strokeWidth=1;shape=mxgraph.floorplan.wall;fillColor=#000000;rounded=0;shadow=0;comic=0;fontFamily=Verdana;fontSize=12;" vertex="1" parent="1">
          <mxGeometry x="21" y="1025" width="299" height="10" as="geometry" />
        </mxCell>
        <mxCell id="2ldc7DW3vHpx0UhSFPCV-58" value="" style="verticalLabelPosition=bottom;html=1;verticalAlign=top;align=center;strokeWidth=1;shape=mxgraph.floorplan.wall;fillColor=#000000;direction=south;rounded=0;shadow=0;comic=0;fontFamily=Verdana;fontSize=12;" vertex="1" parent="1">
          <mxGeometry x="220" y="1016.0000000000001" width="10" height="18" as="geometry" />
        </mxCell>
        <mxCell id="2ldc7DW3vHpx0UhSFPCV-59" value="" style="verticalLabelPosition=bottom;html=1;verticalAlign=top;align=center;strokeWidth=1;shape=mxgraph.floorplan.doorLeft;rounded=0;shadow=0;comic=0;fontFamily=Verdana;fontSize=12;rotation=90;flipV=0;flipH=1;" vertex="1" parent="1">
          <mxGeometry x="144" y="933.0000000000001" width="80" height="85" as="geometry" />
        </mxCell>
        <mxCell id="2ldc7DW3vHpx0UhSFPCV-60" value="" style="verticalLabelPosition=bottom;html=1;verticalAlign=top;align=center;strokeWidth=1;shape=mxgraph.floorplan.dresser;rounded=0;shadow=0;comic=0;fontFamily=Verdana;fontSize=12;rotation=90;" vertex="1" parent="1">
          <mxGeometry x="137" y="828.0000000000001" width="100" height="65" as="geometry" />
        </mxCell>
        <mxCell id="2ldc7DW3vHpx0UhSFPCV-61" value="" style="verticalLabelPosition=bottom;html=1;verticalAlign=top;align=center;strokeWidth=1;shape=mxgraph.floorplan.plant;rounded=0;shadow=0;comic=0;fontFamily=Verdana;fontSize=12;" vertex="1" parent="1">
          <mxGeometry x="36" y="967.0000000000001" width="47" height="51" as="geometry" />
        </mxCell>
        <mxCell id="2ldc7DW3vHpx0UhSFPCV-62" value="" style="verticalLabelPosition=bottom;html=1;verticalAlign=top;align=center;strokeWidth=1;shape=mxgraph.floorplan.workstation;shadow=0;flipV=1;rounded=0;comic=0;fontFamily=Verdana;fontSize=12;" vertex="1" parent="1">
          <mxGeometry x="115" y="1179" width="50" height="40" as="geometry" />
        </mxCell>
        <mxCell id="2ldc7DW3vHpx0UhSFPCV-63" value="" style="verticalLabelPosition=bottom;html=1;verticalAlign=top;align=center;strokeWidth=1;shape=mxgraph.floorplan.flat_tv;rounded=0;shadow=0;comic=0;fontFamily=Verdana;fontSize=12;rotation=-165;" vertex="1" parent="1">
          <mxGeometry x="40" y="1202" width="70" height="10" as="geometry" />
        </mxCell>
        <mxCell id="2ldc7DW3vHpx0UhSFPCV-64" value="" style="verticalLabelPosition=bottom;html=1;verticalAlign=top;align=center;strokeWidth=1;shape=mxgraph.floorplan.flat_tv;rounded=0;shadow=0;comic=0;fontFamily=Verdana;fontSize=12;rotation=160;" vertex="1" parent="1">
          <mxGeometry x="171" y="1202" width="70" height="10" as="geometry" />
        </mxCell>
        <mxCell id="2ldc7DW3vHpx0UhSFPCV-65" value="" style="verticalLabelPosition=bottom;html=1;verticalAlign=top;align=center;strokeWidth=1;shape=mxgraph.floorplan.wall;fillColor=#000000;direction=south;rounded=0;shadow=0;comic=0;fontFamily=Verdana;fontSize=12;" vertex="1" parent="1">
          <mxGeometry x="20" y="566.0000000000001" width="10" height="664" as="geometry" />
        </mxCell>
        <mxCell id="2ldc7DW3vHpx0UhSFPCV-66" value="" style="verticalLabelPosition=bottom;html=1;verticalAlign=top;align=center;strokeWidth=1;shape=mxgraph.floorplan.wall;fillColor=#000000;direction=south;rounded=0;shadow=0;comic=0;fontFamily=Verdana;fontSize=12;" vertex="1" parent="1">
          <mxGeometry x="407" y="1034" width="10" height="191" as="geometry" />
        </mxCell>
        <mxCell id="2ldc7DW3vHpx0UhSFPCV-67" value="" style="verticalLabelPosition=bottom;html=1;verticalAlign=top;align=center;strokeWidth=1;shape=mxgraph.floorplan.wall;fillColor=#000000;rounded=0;shadow=0;comic=0;fontFamily=Verdana;fontSize=12;" vertex="1" parent="1">
          <mxGeometry x="401" y="1025" width="22" height="10" as="geometry" />
        </mxCell>
        <mxCell id="2ldc7DW3vHpx0UhSFPCV-68" value="" style="verticalLabelPosition=bottom;html=1;verticalAlign=top;align=center;strokeWidth=1;shape=mxgraph.floorplan.dresser;rounded=0;shadow=0;comic=0;fontFamily=Verdana;fontSize=12;flipV=1;rotation=90;" vertex="1" parent="1">
          <mxGeometry x="13" y="1053" width="100" height="65" as="geometry" />
        </mxCell>
        <mxCell id="2ldc7DW3vHpx0UhSFPCV-69" value="" style="verticalLabelPosition=bottom;html=1;verticalAlign=top;align=center;strokeWidth=1;shape=mxgraph.floorplan.plant;rounded=0;shadow=0;comic=0;fontFamily=Verdana;fontSize=12;" vertex="1" parent="1">
          <mxGeometry x="350" y="1166" width="47" height="51" as="geometry" />
        </mxCell>
        <mxCell id="2ldc7DW3vHpx0UhSFPCV-70" value="" style="verticalLabelPosition=bottom;html=1;verticalAlign=top;align=center;strokeWidth=1;shape=mxgraph.floorplan.plant;rounded=0;shadow=0;comic=0;fontFamily=Verdana;fontSize=12;" vertex="1" parent="1">
          <mxGeometry x="423" y="1164" width="47" height="51" as="geometry" />
        </mxCell>
        <mxCell id="2ldc7DW3vHpx0UhSFPCV-71" value="" style="verticalLabelPosition=bottom;html=1;verticalAlign=top;align=center;strokeWidth=1;shape=mxgraph.floorplan.wall;fillColor=#000000;direction=south;rounded=0;shadow=0;comic=0;fontFamily=Verdana;fontSize=12;" vertex="1" parent="1">
          <mxGeometry x="630" y="1034" width="10" height="191" as="geometry" />
        </mxCell>
        <mxCell id="2ldc7DW3vHpx0UhSFPCV-72" value="" style="verticalLabelPosition=bottom;html=1;verticalAlign=top;align=center;strokeWidth=1;shape=mxgraph.floorplan.wall;fillColor=#000000;rounded=0;shadow=0;comic=0;fontFamily=Verdana;fontSize=12;" vertex="1" parent="1">
          <mxGeometry x="503" y="1025" width="144" height="10" as="geometry" />
        </mxCell>
        <mxCell id="2ldc7DW3vHpx0UhSFPCV-73" value="" style="verticalLabelPosition=bottom;html=1;verticalAlign=top;align=center;strokeWidth=1;shape=mxgraph.floorplan.doorLeft;rounded=0;shadow=0;comic=0;fontFamily=Verdana;fontSize=12;" vertex="1" parent="1">
          <mxGeometry x="647" y="1028" width="80" height="85" as="geometry" />
        </mxCell>
        <mxCell id="2ldc7DW3vHpx0UhSFPCV-74" value="" style="group" vertex="1" connectable="0" parent="1">
          <mxGeometry x="770" y="1150" width="80" height="70" as="geometry" />
        </mxCell>
        <mxCell id="2ldc7DW3vHpx0UhSFPCV-75" value="" style="verticalLabelPosition=bottom;html=1;verticalAlign=top;align=center;strokeWidth=1;shape=mxgraph.floorplan.office_chair;shadow=0;rounded=0;comic=0;fontFamily=Verdana;fontSize=12;" vertex="1" parent="2ldc7DW3vHpx0UhSFPCV-74">
          <mxGeometry x="20" width="40" height="43" as="geometry" />
        </mxCell>
        <mxCell id="2ldc7DW3vHpx0UhSFPCV-76" value="" style="shape=rect;shadow=0;rounded=0;comic=0;fontFamily=Verdana;fontSize=12;align=center;html=1;" vertex="1" parent="2ldc7DW3vHpx0UhSFPCV-74">
          <mxGeometry y="20" width="80" height="50" as="geometry" />
        </mxCell>
        <mxCell id="2ldc7DW3vHpx0UhSFPCV-77" value="" style="verticalLabelPosition=bottom;html=1;verticalAlign=top;align=center;strokeWidth=1;shape=mxgraph.floorplan.workstation;shadow=0;flipV=1;rounded=0;comic=0;fontFamily=Verdana;fontSize=12;" vertex="1" parent="2ldc7DW3vHpx0UhSFPCV-74">
          <mxGeometry x="15" y="30" width="50" height="40" as="geometry" />
        </mxCell>
        <mxCell id="2ldc7DW3vHpx0UhSFPCV-78" value="" style="verticalLabelPosition=bottom;html=1;verticalAlign=top;align=center;strokeWidth=1;shape=mxgraph.floorplan.plant;rounded=0;shadow=0;comic=0;fontFamily=Verdana;fontSize=12;" vertex="1" parent="1">
          <mxGeometry x="646" y="1164" width="47" height="51" as="geometry" />
        </mxCell>
        <mxCell id="2ldc7DW3vHpx0UhSFPCV-79" value="" style="verticalLabelPosition=bottom;html=1;verticalAlign=top;align=center;strokeWidth=1;shape=mxgraph.floorplan.wall;fillColor=#000000;direction=south;rounded=0;shadow=0;comic=0;fontFamily=Verdana;fontSize=12;" vertex="1" parent="1">
          <mxGeometry x="855" y="1035" width="10" height="191" as="geometry" />
        </mxCell>
        <mxCell id="2ldc7DW3vHpx0UhSFPCV-80" value="" style="verticalLabelPosition=bottom;html=1;verticalAlign=top;align=center;strokeWidth=1;shape=mxgraph.floorplan.wall;fillColor=#000000;rounded=0;shadow=0;comic=0;fontFamily=Verdana;fontSize=12;" vertex="1" parent="1">
          <mxGeometry x="727" y="1025" width="144" height="10" as="geometry" />
        </mxCell>
        <mxCell id="2ldc7DW3vHpx0UhSFPCV-81" value="" style="verticalLabelPosition=bottom;html=1;verticalAlign=top;align=center;strokeWidth=1;shape=mxgraph.floorplan.wall;fillColor=#000000;rounded=0;shadow=0;comic=0;fontFamily=Verdana;fontSize=12;" vertex="1" parent="1">
          <mxGeometry x="951" y="1025" width="129" height="10" as="geometry" />
        </mxCell>
        <mxCell id="2ldc7DW3vHpx0UhSFPCV-82" value="" style="verticalLabelPosition=bottom;html=1;verticalAlign=top;align=center;strokeWidth=1;shape=mxgraph.floorplan.plant;rounded=0;shadow=0;comic=0;fontFamily=Verdana;fontSize=12;" vertex="1" parent="1">
          <mxGeometry x="871" y="1169" width="47" height="51" as="geometry" />
        </mxCell>
        <mxCell id="2ldc7DW3vHpx0UhSFPCV-83" value="" style="verticalLabelPosition=bottom;html=1;verticalAlign=top;align=center;strokeWidth=1;shape=mxgraph.floorplan.dresser;rounded=0;shadow=0;comic=0;fontFamily=Verdana;fontSize=12;rotation=0;" vertex="1" parent="1">
          <mxGeometry x="530" y="1035" width="100" height="65" as="geometry" />
        </mxCell>
        <mxCell id="2ldc7DW3vHpx0UhSFPCV-84" value="" style="verticalLabelPosition=bottom;html=1;verticalAlign=top;align=center;strokeWidth=1;shape=mxgraph.floorplan.dresser;rounded=0;shadow=0;comic=0;fontFamily=Verdana;fontSize=12;rotation=0;" vertex="1" parent="1">
          <mxGeometry x="754" y="1035" width="100" height="65" as="geometry" />
        </mxCell>
        <mxCell id="2ldc7DW3vHpx0UhSFPCV-85" value="" style="verticalLabelPosition=bottom;html=1;verticalAlign=top;align=center;strokeWidth=1;shape=mxgraph.floorplan.dresser;rounded=0;shadow=0;comic=0;fontFamily=Verdana;fontSize=12;rotation=0;" vertex="1" parent="1">
          <mxGeometry x="980" y="1035" width="100" height="65" as="geometry" />
        </mxCell>
        <mxCell id="2ldc7DW3vHpx0UhSFPCV-86" value="" style="verticalLabelPosition=bottom;html=1;verticalAlign=top;align=center;strokeWidth=1;shape=mxgraph.floorplan.wallCorner;fillColor=#000000;rounded=0;shadow=0;comic=0;fontFamily=Verdana;fontSize=12;" vertex="1" parent="1">
          <mxGeometry x="1079" y="974.0000000000001" width="21" height="250" as="geometry" />
        </mxCell>
        <mxCell id="2ldc7DW3vHpx0UhSFPCV-87" value="" style="verticalLabelPosition=bottom;html=1;verticalAlign=top;align=center;strokeWidth=1;shape=mxgraph.floorplan.wallCorner;fillColor=#000000;direction=south;rounded=0;shadow=0;comic=0;fontFamily=Verdana;fontSize=12;" vertex="1" parent="1">
          <mxGeometry x="1260" y="974.0000000000001" width="330" height="254" as="geometry" />
        </mxCell>
        <mxCell id="2ldc7DW3vHpx0UhSFPCV-88" value="" style="verticalLabelPosition=bottom;html=1;verticalAlign=top;align=center;strokeWidth=1;shape=mxgraph.floorplan.doorDouble;rounded=0;shadow=0;comic=0;fontFamily=Verdana;fontSize=12;" vertex="1" parent="1">
          <mxGeometry x="1100" y="977.0000000000001" width="160" height="85" as="geometry" />
        </mxCell>
        <mxCell id="2ldc7DW3vHpx0UhSFPCV-89" value="" style="verticalLabelPosition=bottom;html=1;verticalAlign=top;align=center;strokeWidth=1;shape=mxgraph.floorplan.plant;rounded=0;shadow=0;comic=0;fillColor=#FFFFFF;fontFamily=Verdana;fontSize=12;" vertex="1" parent="1">
          <mxGeometry x="1100" y="1157" width="47" height="51" as="geometry" />
        </mxCell>
        <mxCell id="2ldc7DW3vHpx0UhSFPCV-90" value="" style="verticalLabelPosition=bottom;html=1;verticalAlign=top;align=center;strokeWidth=1;shape=mxgraph.floorplan.plant;rounded=0;shadow=0;comic=0;fontFamily=Verdana;fontSize=12;" vertex="1" parent="1">
          <mxGeometry x="1519" y="988.0000000000001" width="47" height="51" as="geometry" />
        </mxCell>
        <mxCell id="2ldc7DW3vHpx0UhSFPCV-91" value="" style="verticalLabelPosition=bottom;html=1;verticalAlign=top;align=center;strokeWidth=1;shape=mxgraph.floorplan.plant;rounded=0;shadow=0;comic=0;fontFamily=Verdana;fontSize=12;" vertex="1" parent="1">
          <mxGeometry x="1520" y="1164" width="47" height="51" as="geometry" />
        </mxCell>
        <mxCell id="2ldc7DW3vHpx0UhSFPCV-92" value="" style="verticalLabelPosition=bottom;html=1;verticalAlign=top;align=center;strokeWidth=1;shape=mxgraph.floorplan.window;rounded=0;shadow=0;comic=0;fontFamily=Verdana;fontSize=12;" vertex="1" parent="1">
          <mxGeometry x="1280" y="974.0000000000001" width="120" height="10" as="geometry" />
        </mxCell>
        <mxCell id="2ldc7DW3vHpx0UhSFPCV-93" value="" style="verticalLabelPosition=bottom;html=1;verticalAlign=top;align=center;strokeWidth=1;shape=mxgraph.floorplan.window;rounded=0;shadow=0;comic=0;fontFamily=Verdana;fontSize=12;" vertex="1" parent="1">
          <mxGeometry x="1420" y="974.0000000000001" width="110" height="10" as="geometry" />
        </mxCell>
        <mxCell id="2ldc7DW3vHpx0UhSFPCV-94" value="" style="verticalLabelPosition=bottom;html=1;verticalAlign=top;align=center;strokeWidth=1;shape=mxgraph.floorplan.wall;fillColor=#000000;rounded=0;shadow=0;comic=0;fontFamily=Verdana;fontSize=12;" vertex="1" parent="1">
          <mxGeometry x="1590" y="1025" width="10" height="10" as="geometry" />
        </mxCell>
        <mxCell id="2ldc7DW3vHpx0UhSFPCV-95" value="" style="verticalLabelPosition=bottom;html=1;verticalAlign=top;align=center;strokeWidth=1;shape=mxgraph.floorplan.doorLeft;rounded=0;shadow=0;comic=0;fontFamily=Verdana;fontSize=12;" vertex="1" parent="1">
          <mxGeometry x="1600" y="1028" width="80" height="85" as="geometry" />
        </mxCell>
        <mxCell id="2ldc7DW3vHpx0UhSFPCV-96" value="" style="verticalLabelPosition=bottom;html=1;verticalAlign=top;align=center;strokeWidth=1;shape=mxgraph.floorplan.wall;fillColor=#000000;rounded=0;shadow=0;comic=0;fontFamily=Verdana;fontSize=12;" vertex="1" parent="1">
          <mxGeometry x="1680" y="1025" width="270" height="10" as="geometry" />
        </mxCell>
        <mxCell id="2ldc7DW3vHpx0UhSFPCV-97" value="" style="verticalLabelPosition=bottom;html=1;verticalAlign=top;align=center;strokeWidth=1;shape=mxgraph.floorplan.wall;fillColor=#000000;direction=south;rounded=0;shadow=0;comic=0;fontFamily=Verdana;fontSize=12;" vertex="1" parent="1">
          <mxGeometry x="1935" y="1035" width="10" height="191" as="geometry" />
        </mxCell>
        <mxCell id="2ldc7DW3vHpx0UhSFPCV-98" value="" style="group;rotation=-90;" vertex="1" connectable="0" parent="1">
          <mxGeometry x="1859" y="1061" width="110" height="70" as="geometry" />
        </mxCell>
        <mxCell id="2ldc7DW3vHpx0UhSFPCV-99" value="" style="verticalLabelPosition=bottom;html=1;verticalAlign=top;align=center;strokeWidth=1;shape=mxgraph.floorplan.office_chair;shadow=0;rounded=0;comic=0;fontFamily=Verdana;fontSize=12;rotation=-90;" vertex="1" parent="2ldc7DW3vHpx0UhSFPCV-98">
          <mxGeometry x="7" y="14" width="40" height="43" as="geometry" />
        </mxCell>
        <mxCell id="2ldc7DW3vHpx0UhSFPCV-100" value="" style="shape=rect;shadow=0;rounded=0;comic=0;fontFamily=Verdana;fontSize=12;align=center;html=1;rotation=-90;" vertex="1" parent="2ldc7DW3vHpx0UhSFPCV-98">
          <mxGeometry x="-10" y="10" width="120" height="50" as="geometry" />
        </mxCell>
        <mxCell id="2ldc7DW3vHpx0UhSFPCV-101" value="" style="verticalLabelPosition=bottom;html=1;verticalAlign=top;align=center;strokeWidth=1;shape=mxgraph.floorplan.workstation;shadow=0;flipV=1;rounded=0;comic=0;fontFamily=Verdana;fontSize=12;rotation=-90;" vertex="1" parent="2ldc7DW3vHpx0UhSFPCV-98">
          <mxGeometry x="30" y="15" width="50" height="40" as="geometry" />
        </mxCell>
        <mxCell id="2ldc7DW3vHpx0UhSFPCV-102" value="" style="verticalLabelPosition=bottom;html=1;verticalAlign=top;align=center;strokeWidth=1;shape=mxgraph.floorplan.office_chair;shadow=0;rounded=0;comic=0;fontFamily=Verdana;fontSize=12;" vertex="1" parent="1">
          <mxGeometry x="1725" y="1099" width="40" height="43" as="geometry" />
        </mxCell>
        <mxCell id="2ldc7DW3vHpx0UhSFPCV-103" value="" style="verticalLabelPosition=bottom;html=1;verticalAlign=top;align=center;strokeWidth=1;shape=mxgraph.floorplan.office_chair;shadow=0;direction=north;rounded=0;comic=0;fontFamily=Verdana;fontSize=12;" vertex="1" parent="1">
          <mxGeometry x="1675" y="1149" width="43" height="40" as="geometry" />
        </mxCell>
        <mxCell id="2ldc7DW3vHpx0UhSFPCV-104" value="" style="verticalLabelPosition=bottom;html=1;verticalAlign=top;align=center;strokeWidth=1;shape=mxgraph.floorplan.office_chair;shadow=0;direction=south;rounded=0;comic=0;fontFamily=Verdana;fontSize=12;" vertex="1" parent="1">
          <mxGeometry x="1772" y="1149" width="43" height="40" as="geometry" />
        </mxCell>
        <mxCell id="2ldc7DW3vHpx0UhSFPCV-105" value="" style="shape=rect;shadow=0;rounded=0;comic=0;fontFamily=Verdana;fontSize=12;align=center;html=1;" vertex="1" parent="1">
          <mxGeometry x="1695" y="1119" width="100" height="100" as="geometry" />
        </mxCell>
        <mxCell id="2ldc7DW3vHpx0UhSFPCV-106" value="" style="verticalLabelPosition=bottom;html=1;verticalAlign=top;align=center;strokeWidth=1;shape=mxgraph.floorplan.plant;rounded=0;shadow=0;comic=0;fontFamily=Verdana;fontSize=12;" vertex="1" parent="1">
          <mxGeometry x="1595" y="1167" width="47" height="51" as="geometry" />
        </mxCell>
        <mxCell id="2ldc7DW3vHpx0UhSFPCV-107" value="" style="verticalLabelPosition=bottom;html=1;verticalAlign=top;align=center;strokeWidth=1;shape=mxgraph.floorplan.plant;rounded=0;shadow=0;comic=0;fillColor=#FFFFFF;fontFamily=Verdana;fontSize=12;" vertex="1" parent="1">
          <mxGeometry x="1883" y="1165" width="47" height="51" as="geometry" />
        </mxCell>
        <mxCell id="2ldc7DW3vHpx0UhSFPCV-108" value="" style="group" vertex="1" connectable="0" parent="1">
          <mxGeometry x="2070" y="1149" width="80" height="70" as="geometry" />
        </mxCell>
        <mxCell id="2ldc7DW3vHpx0UhSFPCV-109" value="" style="verticalLabelPosition=bottom;html=1;verticalAlign=top;align=center;strokeWidth=1;shape=mxgraph.floorplan.office_chair;shadow=0;rounded=0;comic=0;fontFamily=Verdana;fontSize=12;" vertex="1" parent="2ldc7DW3vHpx0UhSFPCV-108">
          <mxGeometry x="20" width="40" height="43" as="geometry" />
        </mxCell>
        <mxCell id="2ldc7DW3vHpx0UhSFPCV-110" value="" style="shape=rect;shadow=0;rounded=0;comic=0;fontFamily=Verdana;fontSize=12;align=center;html=1;" vertex="1" parent="2ldc7DW3vHpx0UhSFPCV-108">
          <mxGeometry y="20" width="80" height="50" as="geometry" />
        </mxCell>
        <mxCell id="2ldc7DW3vHpx0UhSFPCV-111" value="" style="verticalLabelPosition=bottom;html=1;verticalAlign=top;align=center;strokeWidth=1;shape=mxgraph.floorplan.workstation;shadow=0;flipV=1;rounded=0;comic=0;fontFamily=Verdana;fontSize=12;" vertex="1" parent="2ldc7DW3vHpx0UhSFPCV-108">
          <mxGeometry x="15" y="30" width="50" height="40" as="geometry" />
        </mxCell>
        <mxCell id="2ldc7DW3vHpx0UhSFPCV-112" value="" style="verticalLabelPosition=bottom;html=1;verticalAlign=top;align=center;strokeWidth=1;shape=mxgraph.floorplan.doorLeft;rounded=0;shadow=0;comic=0;fontFamily=Verdana;fontSize=12;" vertex="1" parent="1">
          <mxGeometry x="1950" y="1028" width="80" height="85" as="geometry" />
        </mxCell>
        <mxCell id="2ldc7DW3vHpx0UhSFPCV-113" value="" style="verticalLabelPosition=bottom;html=1;verticalAlign=top;align=center;strokeWidth=1;shape=mxgraph.floorplan.plant;rounded=0;shadow=0;comic=0;fontFamily=Verdana;fontSize=12;" vertex="1" parent="1">
          <mxGeometry x="1950" y="1164" width="47" height="51" as="geometry" />
        </mxCell>
        <mxCell id="2ldc7DW3vHpx0UhSFPCV-114" value="" style="verticalLabelPosition=bottom;html=1;verticalAlign=top;align=center;strokeWidth=1;shape=mxgraph.floorplan.wall;fillColor=#000000;direction=south;rounded=0;shadow=0;comic=0;fontFamily=Verdana;fontSize=12;" vertex="1" parent="1">
          <mxGeometry x="2157" y="1034" width="10" height="191" as="geometry" />
        </mxCell>
        <mxCell id="2ldc7DW3vHpx0UhSFPCV-115" value="" style="verticalLabelPosition=bottom;html=1;verticalAlign=top;align=center;strokeWidth=1;shape=mxgraph.floorplan.wall;fillColor=#000000;rounded=0;shadow=0;comic=0;fontFamily=Verdana;fontSize=12;" vertex="1" parent="1">
          <mxGeometry x="2030" y="1025" width="144" height="10" as="geometry" />
        </mxCell>
        <mxCell id="2ldc7DW3vHpx0UhSFPCV-116" value="" style="verticalLabelPosition=bottom;html=1;verticalAlign=top;align=center;strokeWidth=1;shape=mxgraph.floorplan.doorLeft;rounded=0;shadow=0;comic=0;fontFamily=Verdana;fontSize=12;" vertex="1" parent="1">
          <mxGeometry x="2174" y="1028" width="80" height="85" as="geometry" />
        </mxCell>
        <mxCell id="2ldc7DW3vHpx0UhSFPCV-117" value="" style="verticalLabelPosition=bottom;html=1;verticalAlign=top;align=center;strokeWidth=1;shape=mxgraph.floorplan.plant;rounded=0;shadow=0;comic=0;fontFamily=Verdana;fontSize=12;" vertex="1" parent="1">
          <mxGeometry x="2173" y="1164" width="47" height="51" as="geometry" />
        </mxCell>
        <mxCell id="2ldc7DW3vHpx0UhSFPCV-118" value="" style="verticalLabelPosition=bottom;html=1;verticalAlign=top;align=center;strokeWidth=1;shape=mxgraph.floorplan.dresser;rounded=0;shadow=0;comic=0;fontFamily=Verdana;fontSize=12;rotation=0;" vertex="1" parent="1">
          <mxGeometry x="2057" y="1035" width="100" height="65" as="geometry" />
        </mxCell>
        <mxCell id="2ldc7DW3vHpx0UhSFPCV-119" value="" style="verticalLabelPosition=bottom;html=1;verticalAlign=top;align=center;strokeWidth=1;shape=mxgraph.floorplan.dresser;rounded=0;shadow=0;comic=0;fontFamily=Verdana;fontSize=12;rotation=0;" vertex="1" parent="1">
          <mxGeometry x="2281" y="1035" width="100" height="65" as="geometry" />
        </mxCell>
        <mxCell id="2ldc7DW3vHpx0UhSFPCV-120" value="" style="verticalLabelPosition=bottom;html=1;verticalAlign=top;align=center;strokeWidth=1;shape=mxgraph.floorplan.wall;fillColor=#000000;rounded=0;shadow=0;comic=0;fontFamily=Verdana;fontSize=12;" vertex="1" parent="1">
          <mxGeometry x="2275" y="800.0000000000001" width="204" height="10" as="geometry" />
        </mxCell>
        <mxCell id="2ldc7DW3vHpx0UhSFPCV-121" value="" style="verticalLabelPosition=bottom;html=1;verticalAlign=top;align=center;strokeWidth=1;shape=mxgraph.floorplan.wall;fillColor=#000000;direction=south;rounded=0;shadow=0;comic=0;fontFamily=Verdana;fontSize=12;" vertex="1" parent="1">
          <mxGeometry x="2265" y="794.0000000000001" width="10" height="139" as="geometry" />
        </mxCell>
        <mxCell id="2ldc7DW3vHpx0UhSFPCV-122" value="" style="verticalLabelPosition=bottom;html=1;verticalAlign=top;align=center;strokeWidth=1;shape=mxgraph.floorplan.wall;fillColor=#000000;rounded=0;shadow=0;comic=0;fontFamily=Verdana;fontSize=12;" vertex="1" parent="1">
          <mxGeometry x="2254" y="1025" width="216" height="10" as="geometry" />
        </mxCell>
        <mxCell id="2ldc7DW3vHpx0UhSFPCV-123" value="" style="verticalLabelPosition=bottom;html=1;verticalAlign=top;align=center;strokeWidth=1;shape=mxgraph.floorplan.office_chair;shadow=0;rounded=0;comic=0;fontFamily=Verdana;fontSize=12;rotation=-90;" vertex="1" parent="1">
          <mxGeometry x="2403" y="1136" width="40" height="43" as="geometry" />
        </mxCell>
        <mxCell id="2ldc7DW3vHpx0UhSFPCV-124" value="" style="shape=rect;shadow=0;rounded=0;comic=0;fontFamily=Verdana;fontSize=12;align=center;html=1;rotation=-90;" vertex="1" parent="1">
          <mxGeometry x="2384" y="1132" width="124" height="50" as="geometry" />
        </mxCell>
        <mxCell id="2ldc7DW3vHpx0UhSFPCV-125" value="" style="verticalLabelPosition=bottom;html=1;verticalAlign=top;align=center;strokeWidth=1;shape=mxgraph.floorplan.workstation;shadow=0;flipV=1;rounded=0;comic=0;fontFamily=Verdana;fontSize=12;rotation=-90;" vertex="1" parent="1">
          <mxGeometry x="2426" y="1137" width="50" height="40" as="geometry" />
        </mxCell>
        <mxCell id="2ldc7DW3vHpx0UhSFPCV-126" value="" style="verticalLabelPosition=bottom;html=1;verticalAlign=top;align=center;strokeWidth=1;shape=mxgraph.floorplan.plant;rounded=0;shadow=0;comic=0;fontFamily=Verdana;fontSize=12;" vertex="1" parent="1">
          <mxGeometry x="2410" y="1039" width="47" height="51" as="geometry" />
        </mxCell>
        <mxCell id="2ldc7DW3vHpx0UhSFPCV-127" value="" style="verticalLabelPosition=bottom;html=1;verticalAlign=top;align=center;strokeWidth=1;shape=mxgraph.floorplan.wall;fillColor=#000000;direction=south;rounded=0;shadow=0;comic=0;fontFamily=Verdana;fontSize=12;" vertex="1" parent="1">
          <mxGeometry x="2265" y="1014.0000000000001" width="10" height="20" as="geometry" />
        </mxCell>
        <mxCell id="2ldc7DW3vHpx0UhSFPCV-128" value="" style="group" vertex="1" connectable="0" parent="1">
          <mxGeometry x="2395" y="816.0000000000001" width="80" height="70" as="geometry" />
        </mxCell>
        <mxCell id="2ldc7DW3vHpx0UhSFPCV-129" value="" style="group;rotation=-90;" vertex="1" connectable="0" parent="2ldc7DW3vHpx0UhSFPCV-128">
          <mxGeometry width="80" height="70" as="geometry" />
        </mxCell>
        <mxCell id="2ldc7DW3vHpx0UhSFPCV-130" value="" style="verticalLabelPosition=bottom;html=1;verticalAlign=top;align=center;strokeWidth=1;shape=mxgraph.floorplan.office_chair;fillColor=#ffffff;strokeColor=#000000;shadow=0;rounded=0;comic=0;fontFamily=Verdana;fontSize=12;rotation=-90;" vertex="1" parent="2ldc7DW3vHpx0UhSFPCV-129">
          <mxGeometry x="7" y="14" width="40" height="43" as="geometry" />
        </mxCell>
        <mxCell id="2ldc7DW3vHpx0UhSFPCV-131" value="" style="shape=rect;fillColor=#ffffff;strokeColor=#000000;shadow=0;rounded=0;comic=0;fontFamily=Verdana;fontSize=12;align=center;html=1;rotation=-90;" vertex="1" parent="2ldc7DW3vHpx0UhSFPCV-129">
          <mxGeometry x="10" y="10" width="80" height="50" as="geometry" />
        </mxCell>
        <mxCell id="2ldc7DW3vHpx0UhSFPCV-132" value="" style="verticalLabelPosition=bottom;html=1;verticalAlign=top;align=center;strokeWidth=1;shape=mxgraph.floorplan.workstation;fillColor=#ffffff;strokeColor=#000000;shadow=0;flipV=1;rounded=0;comic=0;fontFamily=Verdana;fontSize=12;rotation=-90;" vertex="1" parent="2ldc7DW3vHpx0UhSFPCV-129">
          <mxGeometry x="30" y="15" width="50" height="40" as="geometry" />
        </mxCell>
        <mxCell id="2ldc7DW3vHpx0UhSFPCV-133" value="" style="verticalLabelPosition=bottom;html=1;verticalAlign=top;align=center;strokeWidth=1;shape=mxgraph.floorplan.doorLeft;rounded=0;shadow=0;comic=0;fontFamily=Verdana;fontSize=12;rotation=90;flipV=1;flipH=1;" vertex="1" parent="1">
          <mxGeometry x="2270" y="931.0000000000001" width="80" height="85" as="geometry" />
        </mxCell>
        <mxCell id="2ldc7DW3vHpx0UhSFPCV-134" value="" style="verticalLabelPosition=bottom;html=1;verticalAlign=top;align=center;strokeWidth=1;shape=mxgraph.floorplan.plant;rounded=0;shadow=0;comic=0;fontFamily=Verdana;fontSize=12;" vertex="1" parent="1">
          <mxGeometry x="2420" y="965.0000000000001" width="47" height="51" as="geometry" />
        </mxCell>
        <mxCell id="2ldc7DW3vHpx0UhSFPCV-135" value="" style="verticalLabelPosition=bottom;html=1;verticalAlign=top;align=center;strokeWidth=1;shape=mxgraph.floorplan.dresser;rounded=0;shadow=0;comic=0;fontFamily=Verdana;fontSize=12;rotation=-90;" vertex="1" parent="1">
          <mxGeometry x="2258" y="828.0000000000001" width="100" height="65" as="geometry" />
        </mxCell>
        <mxCell id="2ldc7DW3vHpx0UhSFPCV-136" value="" style="verticalLabelPosition=bottom;html=1;verticalAlign=top;align=center;strokeWidth=1;shape=mxgraph.floorplan.wall;fillColor=#000000;rounded=0;shadow=0;comic=0;fontFamily=Verdana;fontSize=12;" vertex="1" parent="1">
          <mxGeometry x="2275" y="580.0000000000001" width="204" height="10" as="geometry" />
        </mxCell>
        <mxCell id="2ldc7DW3vHpx0UhSFPCV-137" value="" style="verticalLabelPosition=bottom;html=1;verticalAlign=top;align=center;strokeWidth=1;shape=mxgraph.floorplan.wall;fillColor=#000000;direction=south;rounded=0;shadow=0;comic=0;fontFamily=Verdana;fontSize=12;" vertex="1" parent="1">
          <mxGeometry x="2265" y="574.0000000000001" width="10" height="139" as="geometry" />
        </mxCell>
        <mxCell id="2ldc7DW3vHpx0UhSFPCV-138" value="" style="group" vertex="1" connectable="0" parent="1">
          <mxGeometry x="2395" y="596.0000000000001" width="80" height="70" as="geometry" />
        </mxCell>
        <mxCell id="2ldc7DW3vHpx0UhSFPCV-139" value="" style="group;rotation=-90;" vertex="1" connectable="0" parent="2ldc7DW3vHpx0UhSFPCV-138">
          <mxGeometry width="80" height="70" as="geometry" />
        </mxCell>
        <mxCell id="2ldc7DW3vHpx0UhSFPCV-140" value="" style="verticalLabelPosition=bottom;html=1;verticalAlign=top;align=center;strokeWidth=1;shape=mxgraph.floorplan.office_chair;shadow=0;rounded=0;comic=0;fontFamily=Verdana;fontSize=12;rotation=-90;" vertex="1" parent="2ldc7DW3vHpx0UhSFPCV-139">
          <mxGeometry x="7" y="14" width="40" height="43" as="geometry" />
        </mxCell>
        <mxCell id="2ldc7DW3vHpx0UhSFPCV-141" value="" style="shape=rect;shadow=0;rounded=0;comic=0;fontFamily=Verdana;fontSize=12;align=center;html=1;rotation=-90;" vertex="1" parent="2ldc7DW3vHpx0UhSFPCV-139">
          <mxGeometry x="10" y="10" width="80" height="50" as="geometry" />
        </mxCell>
        <mxCell id="2ldc7DW3vHpx0UhSFPCV-142" value="" style="verticalLabelPosition=bottom;html=1;verticalAlign=top;align=center;strokeWidth=1;shape=mxgraph.floorplan.workstation;shadow=0;flipV=1;rounded=0;comic=0;fontFamily=Verdana;fontSize=12;rotation=-90;" vertex="1" parent="2ldc7DW3vHpx0UhSFPCV-139">
          <mxGeometry x="30" y="15" width="50" height="40" as="geometry" />
        </mxCell>
        <mxCell id="2ldc7DW3vHpx0UhSFPCV-143" value="" style="verticalLabelPosition=bottom;html=1;verticalAlign=top;align=center;strokeWidth=1;shape=mxgraph.floorplan.doorLeft;rounded=0;shadow=0;comic=0;fontFamily=Verdana;fontSize=12;rotation=90;flipV=1;flipH=1;" vertex="1" parent="1">
          <mxGeometry x="2270" y="711.0000000000001" width="80" height="85" as="geometry" />
        </mxCell>
        <mxCell id="2ldc7DW3vHpx0UhSFPCV-144" value="" style="verticalLabelPosition=bottom;html=1;verticalAlign=top;align=center;strokeWidth=1;shape=mxgraph.floorplan.plant;rounded=0;shadow=0;comic=0;fontFamily=Verdana;fontSize=12;" vertex="1" parent="1">
          <mxGeometry x="2420" y="745.0000000000001" width="47" height="51" as="geometry" />
        </mxCell>
        <mxCell id="2ldc7DW3vHpx0UhSFPCV-145" value="" style="verticalLabelPosition=bottom;html=1;verticalAlign=top;align=center;strokeWidth=1;shape=mxgraph.floorplan.dresser;rounded=0;shadow=0;comic=0;fontFamily=Verdana;fontSize=12;rotation=-90;" vertex="1" parent="1">
          <mxGeometry x="2258" y="608.0000000000001" width="100" height="65" as="geometry" />
        </mxCell>
        <mxCell id="2ldc7DW3vHpx0UhSFPCV-146" value="" style="verticalLabelPosition=bottom;html=1;verticalAlign=top;align=center;strokeWidth=1;shape=mxgraph.floorplan.wall;fillColor=#000000;rounded=0;shadow=0;comic=0;fontFamily=Verdana;fontSize=12;" vertex="1" parent="1">
          <mxGeometry x="2275" y="360.0000000000001" width="204" height="10" as="geometry" />
        </mxCell>
        <mxCell id="2ldc7DW3vHpx0UhSFPCV-147" value="" style="verticalLabelPosition=bottom;html=1;verticalAlign=top;align=center;strokeWidth=1;shape=mxgraph.floorplan.wall;fillColor=#000000;direction=south;rounded=0;shadow=0;comic=0;fontFamily=Verdana;fontSize=12;" vertex="1" parent="1">
          <mxGeometry x="2265" y="354.0000000000001" width="10" height="139" as="geometry" />
        </mxCell>
        <mxCell id="2ldc7DW3vHpx0UhSFPCV-148" value="" style="group" vertex="1" connectable="0" parent="1">
          <mxGeometry x="2395" y="376.0000000000001" width="80" height="70" as="geometry" />
        </mxCell>
        <mxCell id="2ldc7DW3vHpx0UhSFPCV-149" value="" style="group;rotation=-90;" vertex="1" connectable="0" parent="2ldc7DW3vHpx0UhSFPCV-148">
          <mxGeometry width="80" height="70" as="geometry" />
        </mxCell>
        <mxCell id="2ldc7DW3vHpx0UhSFPCV-150" value="" style="verticalLabelPosition=bottom;html=1;verticalAlign=top;align=center;strokeWidth=1;shape=mxgraph.floorplan.office_chair;shadow=0;rounded=0;comic=0;fontFamily=Verdana;fontSize=12;rotation=-90;" vertex="1" parent="2ldc7DW3vHpx0UhSFPCV-149">
          <mxGeometry x="7" y="14" width="40" height="43" as="geometry" />
        </mxCell>
        <mxCell id="2ldc7DW3vHpx0UhSFPCV-151" value="" style="shape=rect;shadow=0;rounded=0;comic=0;fontFamily=Verdana;fontSize=12;align=center;html=1;rotation=-90;" vertex="1" parent="2ldc7DW3vHpx0UhSFPCV-149">
          <mxGeometry x="10" y="10" width="80" height="50" as="geometry" />
        </mxCell>
        <mxCell id="2ldc7DW3vHpx0UhSFPCV-152" value="" style="verticalLabelPosition=bottom;html=1;verticalAlign=top;align=center;strokeWidth=1;shape=mxgraph.floorplan.workstation;shadow=0;flipV=1;rounded=0;comic=0;fontFamily=Verdana;fontSize=12;rotation=-90;" vertex="1" parent="2ldc7DW3vHpx0UhSFPCV-149">
          <mxGeometry x="30" y="15" width="50" height="40" as="geometry" />
        </mxCell>
        <mxCell id="2ldc7DW3vHpx0UhSFPCV-153" value="" style="verticalLabelPosition=bottom;html=1;verticalAlign=top;align=center;strokeWidth=1;shape=mxgraph.floorplan.doorLeft;rounded=0;shadow=0;comic=0;fontFamily=Verdana;fontSize=12;rotation=90;flipV=1;flipH=1;" vertex="1" parent="1">
          <mxGeometry x="2270" y="491.0000000000001" width="80" height="85" as="geometry" />
        </mxCell>
        <mxCell id="2ldc7DW3vHpx0UhSFPCV-154" value="" style="verticalLabelPosition=bottom;html=1;verticalAlign=top;align=center;strokeWidth=1;shape=mxgraph.floorplan.plant;rounded=0;shadow=0;comic=0;fontFamily=Verdana;fontSize=12;" vertex="1" parent="1">
          <mxGeometry x="2420" y="525.0000000000001" width="47" height="51" as="geometry" />
        </mxCell>
        <mxCell id="2ldc7DW3vHpx0UhSFPCV-155" value="" style="verticalLabelPosition=bottom;html=1;verticalAlign=top;align=center;strokeWidth=1;shape=mxgraph.floorplan.dresser;rounded=0;shadow=0;comic=0;fontFamily=Verdana;fontSize=12;rotation=-90;" vertex="1" parent="1">
          <mxGeometry x="2258" y="388.0000000000001" width="100" height="65" as="geometry" />
        </mxCell>
        <mxCell id="2ldc7DW3vHpx0UhSFPCV-156" value="" style="verticalLabelPosition=bottom;html=1;verticalAlign=top;align=center;strokeWidth=1;shape=mxgraph.floorplan.wall;fillColor=#000000;direction=south;rounded=0;shadow=0;comic=0;fontFamily=Verdana;fontSize=12;" vertex="1" parent="1">
          <mxGeometry x="2265" y="24.000000000000114" width="10" height="248" as="geometry" />
        </mxCell>
        <mxCell id="2ldc7DW3vHpx0UhSFPCV-157" value="" style="verticalLabelPosition=bottom;html=1;verticalAlign=top;align=center;strokeWidth=1;shape=mxgraph.floorplan.doorLeft;rounded=0;shadow=0;comic=0;fontFamily=Verdana;fontSize=12;rotation=90;flipV=1;flipH=1;" vertex="1" parent="1">
          <mxGeometry x="2270" y="270.0000000000001" width="80" height="85" as="geometry" />
        </mxCell>
        <mxCell id="2ldc7DW3vHpx0UhSFPCV-158" value="" style="verticalLabelPosition=bottom;html=1;verticalAlign=top;align=center;strokeWidth=1;shape=mxgraph.floorplan.plant;rounded=0;shadow=0;comic=0;fontFamily=Verdana;fontSize=12;" vertex="1" parent="1">
          <mxGeometry x="2420" y="304.0000000000001" width="47" height="51" as="geometry" />
        </mxCell>
        <mxCell id="2ldc7DW3vHpx0UhSFPCV-159" value="" style="verticalLabelPosition=bottom;html=1;verticalAlign=top;align=center;strokeWidth=1;shape=mxgraph.floorplan.dresser;rounded=0;shadow=0;comic=0;fontFamily=Verdana;fontSize=12;rotation=0;" vertex="1" parent="1">
          <mxGeometry x="2277" y="30.000000000000114" width="100" height="65" as="geometry" />
        </mxCell>
        <mxCell id="2ldc7DW3vHpx0UhSFPCV-160" value="" style="verticalLabelPosition=bottom;html=1;verticalAlign=top;align=center;strokeWidth=1;shape=mxgraph.floorplan.wallCorner;fillColor=#000000;direction=west;rounded=0;shadow=0;comic=0;fontFamily=Verdana;fontSize=12;" vertex="1" parent="1">
          <mxGeometry x="28" y="384.0000000000001" width="202" height="12" as="geometry" />
        </mxCell>
        <mxCell id="2ldc7DW3vHpx0UhSFPCV-161" value="" style="verticalLabelPosition=bottom;html=1;verticalAlign=top;align=center;strokeWidth=1;shape=mxgraph.floorplan.wall;fillColor=#000000;direction=south;rounded=0;shadow=0;comic=0;fontFamily=Verdana;fontSize=12;" vertex="1" parent="1">
          <mxGeometry x="220" y="24.000000000000114" width="10" height="279" as="geometry" />
        </mxCell>
        <mxCell id="2ldc7DW3vHpx0UhSFPCV-162" value="" style="verticalLabelPosition=bottom;html=1;verticalAlign=top;align=center;strokeWidth=1;shape=mxgraph.floorplan.doorLeft;rounded=0;shadow=0;comic=0;fontFamily=Verdana;fontSize=12;rotation=90;flipH=1;" vertex="1" parent="1">
          <mxGeometry x="145" y="301.0000000000001" width="80" height="85" as="geometry" />
        </mxCell>
        <mxCell id="2ldc7DW3vHpx0UhSFPCV-163" value="" style="verticalLabelPosition=bottom;html=1;verticalAlign=top;align=center;strokeWidth=1;shape=mxgraph.floorplan.wall;fillColor=#000000;rounded=0;shadow=0;comic=0;fontFamily=Verdana;fontSize=12;" vertex="1" parent="1">
          <mxGeometry x="230" y="260.0000000000001" width="212" height="10" as="geometry" />
        </mxCell>
        <mxCell id="2ldc7DW3vHpx0UhSFPCV-164" value="" style="group;rotation=90;" vertex="1" connectable="0" parent="1">
          <mxGeometry x="253" y="41.000000000000114" width="160" height="140" as="geometry" />
        </mxCell>
        <mxCell id="2ldc7DW3vHpx0UhSFPCV-165" value="" style="verticalLabelPosition=bottom;html=1;verticalAlign=top;align=center;strokeWidth=1;shape=mxgraph.floorplan.office_chair;shadow=0;rounded=0;comic=0;fontFamily=Verdana;fontSize=12;rotation=90;" vertex="1" parent="2ldc7DW3vHpx0UhSFPCV-164">
          <mxGeometry x="109" y="19" width="40" height="43" as="geometry" />
        </mxCell>
        <mxCell id="2ldc7DW3vHpx0UhSFPCV-166" value="" style="verticalLabelPosition=bottom;html=1;verticalAlign=top;align=center;strokeWidth=1;shape=mxgraph.floorplan.office_chair;shadow=0;direction=west;rounded=0;comic=0;fontFamily=Verdana;fontSize=12;rotation=90;" vertex="1" parent="2ldc7DW3vHpx0UhSFPCV-164">
          <mxGeometry x="12" y="19" width="40" height="43" as="geometry" />
        </mxCell>
        <mxCell id="2ldc7DW3vHpx0UhSFPCV-167" value="" style="verticalLabelPosition=bottom;html=1;verticalAlign=top;align=center;strokeWidth=1;shape=mxgraph.floorplan.office_chair;shadow=0;rounded=0;comic=0;fontFamily=Verdana;fontSize=12;rotation=90;" vertex="1" parent="2ldc7DW3vHpx0UhSFPCV-164">
          <mxGeometry x="109" y="79" width="40" height="43" as="geometry" />
        </mxCell>
        <mxCell id="2ldc7DW3vHpx0UhSFPCV-168" value="" style="verticalLabelPosition=bottom;html=1;verticalAlign=top;align=center;strokeWidth=1;shape=mxgraph.floorplan.office_chair;shadow=0;direction=west;rounded=0;comic=0;fontFamily=Verdana;fontSize=12;rotation=90;" vertex="1" parent="2ldc7DW3vHpx0UhSFPCV-164">
          <mxGeometry x="12" y="79" width="40" height="43" as="geometry" />
        </mxCell>
        <mxCell id="2ldc7DW3vHpx0UhSFPCV-169" value="" style="shape=rect;shadow=0;rounded=0;comic=0;fontFamily=Verdana;fontSize=12;align=center;html=1;rotation=90;" vertex="1" parent="2ldc7DW3vHpx0UhSFPCV-164">
          <mxGeometry y="20" width="160" height="100" as="geometry" />
        </mxCell>
        <mxCell id="2ldc7DW3vHpx0UhSFPCV-170" value="" style="verticalLabelPosition=bottom;html=1;verticalAlign=top;align=center;strokeWidth=1;shape=mxgraph.floorplan.office_chair;shadow=0;rounded=0;comic=0;fontFamily=Verdana;fontSize=12;rotation=180;" vertex="1" parent="1">
          <mxGeometry x="103" y="58.000000000000114" width="40" height="43" as="geometry" />
        </mxCell>
        <mxCell id="2ldc7DW3vHpx0UhSFPCV-171" value="" style="shape=rect;shadow=0;rounded=0;comic=0;fontFamily=Verdana;fontSize=12;align=center;html=1;rotation=180;" vertex="1" parent="1">
          <mxGeometry x="31" y="30.000000000000114" width="187" height="50" as="geometry" />
        </mxCell>
        <mxCell id="2ldc7DW3vHpx0UhSFPCV-172" value="" style="verticalLabelPosition=bottom;html=1;verticalAlign=top;align=center;strokeWidth=1;shape=mxgraph.floorplan.workstation;shadow=0;flipV=1;rounded=0;comic=0;fontFamily=Verdana;fontSize=12;rotation=180;" vertex="1" parent="1">
          <mxGeometry x="98" y="30.000000000000114" width="50" height="40" as="geometry" />
        </mxCell>
        <mxCell id="2ldc7DW3vHpx0UhSFPCV-173" value="" style="verticalLabelPosition=bottom;html=1;verticalAlign=top;align=center;strokeWidth=1;shape=mxgraph.floorplan.flat_tv;rounded=0;shadow=0;comic=0;fontFamily=Verdana;fontSize=12;rotation=-35;" vertex="1" parent="1">
          <mxGeometry x="29" y="51.000000000000114" width="70" height="10" as="geometry" />
        </mxCell>
        <mxCell id="2ldc7DW3vHpx0UhSFPCV-174" value="" style="verticalLabelPosition=bottom;html=1;verticalAlign=top;align=center;strokeWidth=1;shape=mxgraph.floorplan.flat_tv;rounded=0;shadow=0;comic=0;fontFamily=Verdana;fontSize=12;rotation=30;" vertex="1" parent="1">
          <mxGeometry x="150" y="52.000000000000114" width="70" height="10" as="geometry" />
        </mxCell>
        <mxCell id="2ldc7DW3vHpx0UhSFPCV-175" value="" style="group;rotation=-90;" vertex="1" connectable="0" parent="1">
          <mxGeometry x="-29" y="254.0000000000001" width="191" height="71" as="geometry" />
        </mxCell>
        <mxCell id="2ldc7DW3vHpx0UhSFPCV-176" value="" style="verticalLabelPosition=bottom;html=1;verticalAlign=top;align=center;strokeWidth=1;shape=mxgraph.floorplan.office_chair;shadow=0;rounded=0;comic=0;fontFamily=Verdana;fontSize=12;rotation=90;" vertex="1" parent="2ldc7DW3vHpx0UhSFPCV-175">
          <mxGeometry x="90" y="16" width="40" height="43" as="geometry" />
        </mxCell>
        <mxCell id="2ldc7DW3vHpx0UhSFPCV-177" value="" style="shape=rect;shadow=0;rounded=0;comic=0;fontFamily=Verdana;fontSize=12;align=center;html=1;rotation=90;" vertex="1" parent="2ldc7DW3vHpx0UhSFPCV-175">
          <mxGeometry x="-8" y="11" width="187" height="50" as="geometry" />
        </mxCell>
        <mxCell id="2ldc7DW3vHpx0UhSFPCV-178" value="" style="verticalLabelPosition=bottom;html=1;verticalAlign=top;align=center;strokeWidth=1;shape=mxgraph.floorplan.workstation;shadow=0;flipV=1;rounded=0;comic=0;fontFamily=Verdana;fontSize=12;rotation=90;" vertex="1" parent="2ldc7DW3vHpx0UhSFPCV-175">
          <mxGeometry x="55" y="17" width="50" height="40" as="geometry" />
        </mxCell>
        <mxCell id="2ldc7DW3vHpx0UhSFPCV-179" value="" style="verticalLabelPosition=bottom;html=1;verticalAlign=top;align=center;strokeWidth=1;shape=mxgraph.floorplan.flat_tv;rounded=0;shadow=0;comic=0;fontFamily=Verdana;fontSize=12;rotation=-125;" vertex="1" parent="2ldc7DW3vHpx0UhSFPCV-175">
          <mxGeometry x="51" y="91" width="70" height="10" as="geometry" />
        </mxCell>
        <mxCell id="2ldc7DW3vHpx0UhSFPCV-180" value="" style="verticalLabelPosition=bottom;html=1;verticalAlign=top;align=center;strokeWidth=1;shape=mxgraph.floorplan.flat_tv;rounded=0;shadow=0;comic=0;fontFamily=Verdana;fontSize=12;rotation=-60;" vertex="1" parent="2ldc7DW3vHpx0UhSFPCV-175">
          <mxGeometry x="52" y="-30" width="70" height="10" as="geometry" />
        </mxCell>
        <mxCell id="2ldc7DW3vHpx0UhSFPCV-181" value="" style="verticalLabelPosition=bottom;html=1;verticalAlign=top;align=center;strokeWidth=1;shape=mxgraph.floorplan.plant;rounded=0;shadow=0;comic=0;fontFamily=Verdana;fontSize=12;" vertex="1" parent="1">
          <mxGeometry x="32" y="122.00000000000011" width="47" height="51" as="geometry" />
        </mxCell>
        <mxCell id="2ldc7DW3vHpx0UhSFPCV-182" value="" style="verticalLabelPosition=bottom;html=1;verticalAlign=top;align=center;strokeWidth=1;shape=mxgraph.floorplan.dresser;rounded=0;shadow=0;comic=0;fontFamily=Verdana;fontSize=12;rotation=90;" vertex="1" parent="1">
          <mxGeometry x="136" y="156.0000000000001" width="100" height="65" as="geometry" />
        </mxCell>
        <mxCell id="2ldc7DW3vHpx0UhSFPCV-183" value="" style="group;rotation=90;" vertex="1" connectable="0" parent="1">
          <mxGeometry x="642" y="41.000000000000114" width="160" height="140" as="geometry" />
        </mxCell>
        <mxCell id="2ldc7DW3vHpx0UhSFPCV-184" value="" style="verticalLabelPosition=bottom;html=1;verticalAlign=top;align=center;strokeWidth=1;shape=mxgraph.floorplan.office_chair;shadow=0;rounded=0;comic=0;fontFamily=Verdana;fontSize=12;rotation=90;" vertex="1" parent="2ldc7DW3vHpx0UhSFPCV-183">
          <mxGeometry x="109" y="19" width="40" height="43" as="geometry" />
        </mxCell>
        <mxCell id="2ldc7DW3vHpx0UhSFPCV-185" value="" style="verticalLabelPosition=bottom;html=1;verticalAlign=top;align=center;strokeWidth=1;shape=mxgraph.floorplan.office_chair;shadow=0;direction=west;rounded=0;comic=0;fontFamily=Verdana;fontSize=12;rotation=90;" vertex="1" parent="2ldc7DW3vHpx0UhSFPCV-183">
          <mxGeometry x="12" y="19" width="40" height="43" as="geometry" />
        </mxCell>
        <mxCell id="2ldc7DW3vHpx0UhSFPCV-186" value="" style="verticalLabelPosition=bottom;html=1;verticalAlign=top;align=center;strokeWidth=1;shape=mxgraph.floorplan.office_chair;shadow=0;rounded=0;comic=0;fontFamily=Verdana;fontSize=12;rotation=90;" vertex="1" parent="2ldc7DW3vHpx0UhSFPCV-183">
          <mxGeometry x="109" y="79" width="40" height="43" as="geometry" />
        </mxCell>
        <mxCell id="2ldc7DW3vHpx0UhSFPCV-187" value="" style="verticalLabelPosition=bottom;html=1;verticalAlign=top;align=center;strokeWidth=1;shape=mxgraph.floorplan.office_chair;shadow=0;direction=west;rounded=0;comic=0;fontFamily=Verdana;fontSize=12;rotation=90;" vertex="1" parent="2ldc7DW3vHpx0UhSFPCV-183">
          <mxGeometry x="12" y="79" width="40" height="43" as="geometry" />
        </mxCell>
        <mxCell id="2ldc7DW3vHpx0UhSFPCV-188" value="" style="shape=rect;shadow=0;rounded=0;comic=0;fontFamily=Verdana;fontSize=12;align=center;html=1;rotation=90;" vertex="1" parent="2ldc7DW3vHpx0UhSFPCV-183">
          <mxGeometry y="20" width="160" height="100" as="geometry" />
        </mxCell>
        <mxCell id="2ldc7DW3vHpx0UhSFPCV-189" value="" style="verticalLabelPosition=bottom;html=1;verticalAlign=top;align=center;strokeWidth=1;shape=mxgraph.floorplan.doorDouble;rounded=0;shadow=0;comic=0;fontFamily=Verdana;fontSize=12;flipV=1;" vertex="1" parent="1">
          <mxGeometry x="443" y="182.0000000000001" width="160" height="85" as="geometry" />
        </mxCell>
        <mxCell id="2ldc7DW3vHpx0UhSFPCV-190" value="" style="verticalLabelPosition=bottom;html=1;verticalAlign=top;align=center;strokeWidth=1;shape=mxgraph.floorplan.office_chair;shadow=0;rounded=0;comic=0;fontFamily=Verdana;fontSize=12;rotation=-90;" vertex="1" parent="1">
          <mxGeometry x="2401" y="135.0000000000001" width="40" height="43" as="geometry" />
        </mxCell>
        <mxCell id="2ldc7DW3vHpx0UhSFPCV-191" value="" style="shape=rect;shadow=0;rounded=0;comic=0;fontFamily=Verdana;fontSize=12;align=center;html=1;rotation=-90;" vertex="1" parent="1">
          <mxGeometry x="2377" y="137.0000000000001" width="135" height="50" as="geometry" />
        </mxCell>
        <mxCell id="2ldc7DW3vHpx0UhSFPCV-192" value="" style="verticalLabelPosition=bottom;html=1;verticalAlign=top;align=center;strokeWidth=1;shape=mxgraph.floorplan.workstation;shadow=0;flipV=1;rounded=0;comic=0;fontFamily=Verdana;fontSize=12;rotation=-90;" vertex="1" parent="1">
          <mxGeometry x="2424" y="136.0000000000001" width="50" height="40" as="geometry" />
        </mxCell>
        <mxCell id="2ldc7DW3vHpx0UhSFPCV-193" value="" style="verticalLabelPosition=bottom;html=1;verticalAlign=top;align=center;strokeWidth=1;shape=mxgraph.floorplan.plant;rounded=0;shadow=0;comic=0;fontFamily=Verdana;fontSize=12;" vertex="1" parent="1">
          <mxGeometry x="2418" y="33.000000000000114" width="47" height="51" as="geometry" />
        </mxCell>
        <mxCell id="2ldc7DW3vHpx0UhSFPCV-194" value="" style="verticalLabelPosition=bottom;html=1;verticalAlign=top;align=center;strokeWidth=1;shape=mxgraph.floorplan.wall;fillColor=#000000;rounded=0;shadow=0;comic=0;fontFamily=Verdana;fontSize=12;" vertex="1" parent="1">
          <mxGeometry x="2040" y="260.0000000000001" width="230" height="10" as="geometry" />
        </mxCell>
        <mxCell id="2ldc7DW3vHpx0UhSFPCV-195" value="" style="verticalLabelPosition=bottom;html=1;verticalAlign=top;align=center;strokeWidth=1;shape=mxgraph.floorplan.office_chair;shadow=0;rounded=0;comic=0;fontFamily=Verdana;fontSize=12;" vertex="1" parent="1">
          <mxGeometry x="2152" y="74.00000000000011" width="40" height="43" as="geometry" />
        </mxCell>
        <mxCell id="2ldc7DW3vHpx0UhSFPCV-196" value="" style="verticalLabelPosition=bottom;html=1;verticalAlign=top;align=center;strokeWidth=1;shape=mxgraph.floorplan.office_chair;shadow=0;direction=west;rounded=0;comic=0;fontFamily=Verdana;fontSize=12;" vertex="1" parent="1">
          <mxGeometry x="2152" y="171.0000000000001" width="40" height="43" as="geometry" />
        </mxCell>
        <mxCell id="2ldc7DW3vHpx0UhSFPCV-197" value="" style="verticalLabelPosition=bottom;html=1;verticalAlign=top;align=center;strokeWidth=1;shape=mxgraph.floorplan.office_chair;shadow=0;direction=north;rounded=0;comic=0;fontFamily=Verdana;fontSize=12;" vertex="1" parent="1">
          <mxGeometry x="2102" y="124.00000000000011" width="43" height="40" as="geometry" />
        </mxCell>
        <mxCell id="2ldc7DW3vHpx0UhSFPCV-198" value="" style="verticalLabelPosition=bottom;html=1;verticalAlign=top;align=center;strokeWidth=1;shape=mxgraph.floorplan.office_chair;shadow=0;direction=south;rounded=0;comic=0;fontFamily=Verdana;fontSize=12;" vertex="1" parent="1">
          <mxGeometry x="2199" y="124.00000000000011" width="43" height="40" as="geometry" />
        </mxCell>
        <mxCell id="2ldc7DW3vHpx0UhSFPCV-199" value="" style="shape=rect;shadow=0;rounded=0;comic=0;fontFamily=Verdana;fontSize=12;align=center;html=1;" vertex="1" parent="1">
          <mxGeometry x="2122" y="94.00000000000011" width="100" height="100" as="geometry" />
        </mxCell>
        <mxCell id="2ldc7DW3vHpx0UhSFPCV-200" value="" style="verticalLabelPosition=bottom;html=1;verticalAlign=top;align=center;strokeWidth=1;shape=mxgraph.floorplan.wall;fillColor=#000000;direction=south;rounded=0;shadow=0;comic=0;fontFamily=Verdana;fontSize=12;" vertex="1" parent="1">
          <mxGeometry x="1945" y="20.000000000000114" width="10" height="248" as="geometry" />
        </mxCell>
        <mxCell id="2ldc7DW3vHpx0UhSFPCV-201" value="" style="verticalLabelPosition=bottom;html=1;verticalAlign=top;align=center;strokeWidth=1;shape=mxgraph.floorplan.plant;rounded=0;shadow=0;comic=0;fontFamily=Verdana;fontSize=12;" vertex="1" parent="1">
          <mxGeometry x="2043" y="35.000000000000114" width="47" height="51" as="geometry" />
        </mxCell>
        <mxCell id="2ldc7DW3vHpx0UhSFPCV-202" value="" style="verticalLabelPosition=bottom;html=1;verticalAlign=top;align=center;strokeWidth=1;shape=mxgraph.floorplan.doorLeft;rounded=0;shadow=0;comic=0;fontFamily=Verdana;fontSize=12;flipV=1;" vertex="1" parent="1">
          <mxGeometry x="1960" y="182.0000000000001" width="80" height="85" as="geometry" />
        </mxCell>
        <mxCell id="2ldc7DW3vHpx0UhSFPCV-203" value="" style="verticalLabelPosition=bottom;html=1;verticalAlign=top;align=center;strokeWidth=1;shape=mxgraph.floorplan.wall;fillColor=#000000;rounded=0;shadow=0;comic=0;fontFamily=Verdana;fontSize=12;" vertex="1" parent="1">
          <mxGeometry x="1940" y="260.0000000000001" width="20" height="10" as="geometry" />
        </mxCell>
        <mxCell id="2ldc7DW3vHpx0UhSFPCV-204" value="" style="verticalLabelPosition=bottom;html=1;verticalAlign=top;align=center;strokeWidth=1;shape=mxgraph.floorplan.doorRight;rounded=0;shadow=0;comic=0;fontFamily=Verdana;fontSize=12;flipV=1;" vertex="1" parent="1">
          <mxGeometry x="1860" y="182.0000000000001" width="80" height="85" as="geometry" />
        </mxCell>
        <mxCell id="2ldc7DW3vHpx0UhSFPCV-205" value="" style="verticalLabelPosition=bottom;html=1;verticalAlign=top;align=center;strokeWidth=1;shape=mxgraph.floorplan.wall;fillColor=#000000;rounded=0;shadow=0;comic=0;fontFamily=Verdana;fontSize=12;" vertex="1" parent="1">
          <mxGeometry x="1720" y="260.0000000000001" width="140" height="10" as="geometry" />
        </mxCell>
        <mxCell id="2ldc7DW3vHpx0UhSFPCV-206" value="" style="verticalLabelPosition=bottom;html=1;verticalAlign=top;align=center;strokeWidth=1;shape=mxgraph.floorplan.wall;fillColor=#000000;direction=south;rounded=0;shadow=0;comic=0;fontFamily=Verdana;fontSize=12;" vertex="1" parent="1">
          <mxGeometry x="1725" y="24.000000000000114" width="10" height="244" as="geometry" />
        </mxCell>
        <mxCell id="2ldc7DW3vHpx0UhSFPCV-207" value="" style="group;rotation=90;" vertex="1" connectable="0" parent="1">
          <mxGeometry x="1731" y="50.000000000000114" width="80" height="70" as="geometry" />
        </mxCell>
        <mxCell id="2ldc7DW3vHpx0UhSFPCV-208" value="" style="verticalLabelPosition=bottom;html=1;verticalAlign=top;align=center;strokeWidth=1;shape=mxgraph.floorplan.office_chair;shadow=0;rounded=0;comic=0;fontFamily=Verdana;fontSize=12;rotation=90;" vertex="1" parent="2ldc7DW3vHpx0UhSFPCV-207">
          <mxGeometry x="35" y="14" width="40" height="43" as="geometry" />
        </mxCell>
        <mxCell id="2ldc7DW3vHpx0UhSFPCV-209" value="" style="shape=rect;shadow=0;rounded=0;comic=0;fontFamily=Verdana;fontSize=12;align=center;html=1;rotation=90;" vertex="1" parent="2ldc7DW3vHpx0UhSFPCV-207">
          <mxGeometry x="-10" y="10" width="80" height="50" as="geometry" />
        </mxCell>
        <mxCell id="2ldc7DW3vHpx0UhSFPCV-210" value="" style="verticalLabelPosition=bottom;html=1;verticalAlign=top;align=center;strokeWidth=1;shape=mxgraph.floorplan.workstation;shadow=0;flipV=1;rounded=0;comic=0;fontFamily=Verdana;fontSize=12;rotation=90;" vertex="1" parent="2ldc7DW3vHpx0UhSFPCV-207">
          <mxGeometry y="15" width="50" height="40" as="geometry" />
        </mxCell>
        <mxCell id="2ldc7DW3vHpx0UhSFPCV-211" value="" style="verticalLabelPosition=bottom;html=1;verticalAlign=top;align=center;strokeWidth=1;shape=mxgraph.floorplan.dresser;rounded=0;shadow=0;comic=0;fontFamily=Verdana;fontSize=12;rotation=-90;" vertex="1" parent="1">
          <mxGeometry x="1718" y="177.0000000000001" width="100" height="65" as="geometry" />
        </mxCell>
        <mxCell id="2ldc7DW3vHpx0UhSFPCV-212" value="" style="verticalLabelPosition=bottom;html=1;verticalAlign=top;align=center;strokeWidth=1;shape=mxgraph.floorplan.plant;rounded=0;shadow=0;comic=0;fontFamily=Verdana;fontSize=12;" vertex="1" parent="1">
          <mxGeometry x="1888" y="37.000000000000114" width="47" height="51" as="geometry" />
        </mxCell>
        <mxCell id="2ldc7DW3vHpx0UhSFPCV-213" value="" style="verticalLabelPosition=bottom;html=1;verticalAlign=top;align=center;strokeWidth=1;shape=mxgraph.floorplan.doorRight;rounded=0;shadow=0;comic=0;fontFamily=Verdana;fontSize=12;flipV=1;" vertex="1" parent="1">
          <mxGeometry x="1640" y="182.0000000000001" width="80" height="85" as="geometry" />
        </mxCell>
        <mxCell id="2ldc7DW3vHpx0UhSFPCV-214" value="" style="verticalLabelPosition=bottom;html=1;verticalAlign=top;align=center;strokeWidth=1;shape=mxgraph.floorplan.wall;fillColor=#000000;rounded=0;shadow=0;comic=0;fontFamily=Verdana;fontSize=12;" vertex="1" parent="1">
          <mxGeometry x="1500" y="260.0000000000001" width="140" height="10" as="geometry" />
        </mxCell>
        <mxCell id="2ldc7DW3vHpx0UhSFPCV-215" value="" style="verticalLabelPosition=bottom;html=1;verticalAlign=top;align=center;strokeWidth=1;shape=mxgraph.floorplan.wall;fillColor=#000000;direction=south;rounded=0;shadow=0;comic=0;fontFamily=Verdana;fontSize=12;" vertex="1" parent="1">
          <mxGeometry x="1505" y="24.000000000000114" width="10" height="244" as="geometry" />
        </mxCell>
        <mxCell id="2ldc7DW3vHpx0UhSFPCV-216" value="" style="group;rotation=90;" vertex="1" connectable="0" parent="1">
          <mxGeometry x="1511" y="50.000000000000114" width="80" height="70" as="geometry" />
        </mxCell>
        <mxCell id="2ldc7DW3vHpx0UhSFPCV-217" value="" style="verticalLabelPosition=bottom;html=1;verticalAlign=top;align=center;strokeWidth=1;shape=mxgraph.floorplan.office_chair;shadow=0;rounded=0;comic=0;fontFamily=Verdana;fontSize=12;rotation=90;" vertex="1" parent="2ldc7DW3vHpx0UhSFPCV-216">
          <mxGeometry x="35" y="14" width="40" height="43" as="geometry" />
        </mxCell>
        <mxCell id="2ldc7DW3vHpx0UhSFPCV-218" value="" style="shape=rect;shadow=0;rounded=0;comic=0;fontFamily=Verdana;fontSize=12;align=center;html=1;rotation=90;" vertex="1" parent="2ldc7DW3vHpx0UhSFPCV-216">
          <mxGeometry x="-10" y="10" width="80" height="50" as="geometry" />
        </mxCell>
        <mxCell id="2ldc7DW3vHpx0UhSFPCV-219" value="" style="verticalLabelPosition=bottom;html=1;verticalAlign=top;align=center;strokeWidth=1;shape=mxgraph.floorplan.workstation;shadow=0;flipV=1;rounded=0;comic=0;fontFamily=Verdana;fontSize=12;rotation=90;" vertex="1" parent="2ldc7DW3vHpx0UhSFPCV-216">
          <mxGeometry y="15" width="50" height="40" as="geometry" />
        </mxCell>
        <mxCell id="2ldc7DW3vHpx0UhSFPCV-220" value="" style="verticalLabelPosition=bottom;html=1;verticalAlign=top;align=center;strokeWidth=1;shape=mxgraph.floorplan.dresser;rounded=0;shadow=0;comic=0;fontFamily=Verdana;fontSize=12;rotation=-90;" vertex="1" parent="1">
          <mxGeometry x="1498" y="177.0000000000001" width="100" height="65" as="geometry" />
        </mxCell>
        <mxCell id="2ldc7DW3vHpx0UhSFPCV-221" value="" style="verticalLabelPosition=bottom;html=1;verticalAlign=top;align=center;strokeWidth=1;shape=mxgraph.floorplan.plant;rounded=0;shadow=0;comic=0;fontFamily=Verdana;fontSize=12;" vertex="1" parent="1">
          <mxGeometry x="1668" y="37.000000000000114" width="47" height="51" as="geometry" />
        </mxCell>
        <mxCell id="2ldc7DW3vHpx0UhSFPCV-222" value="" style="verticalLabelPosition=bottom;html=1;verticalAlign=top;align=center;strokeWidth=1;shape=mxgraph.floorplan.doorRight;rounded=0;shadow=0;comic=0;fillColor=#FFFFFF;fontFamily=Verdana;fontSize=12;flipV=1;" vertex="1" parent="1">
          <mxGeometry x="1420" y="182.0000000000001" width="80" height="85" as="geometry" />
        </mxCell>
        <mxCell id="2ldc7DW3vHpx0UhSFPCV-223" value="" style="verticalLabelPosition=bottom;html=1;verticalAlign=top;align=center;strokeWidth=1;shape=mxgraph.floorplan.wall;fillColor=#000000;rounded=0;shadow=0;comic=0;fontFamily=Verdana;fontSize=12;" vertex="1" parent="1">
          <mxGeometry x="1280" y="260.0000000000001" width="140" height="10" as="geometry" />
        </mxCell>
        <mxCell id="2ldc7DW3vHpx0UhSFPCV-224" value="" style="verticalLabelPosition=bottom;html=1;verticalAlign=top;align=center;strokeWidth=1;shape=mxgraph.floorplan.wall;fillColor=#000000;direction=south;rounded=0;shadow=0;comic=0;fontFamily=Verdana;fontSize=12;" vertex="1" parent="1">
          <mxGeometry x="1285" y="24.000000000000114" width="10" height="244" as="geometry" />
        </mxCell>
        <mxCell id="2ldc7DW3vHpx0UhSFPCV-225" value="" style="group;rotation=90;" vertex="1" connectable="0" parent="1">
          <mxGeometry x="1291" y="50.000000000000114" width="80" height="70" as="geometry" />
        </mxCell>
        <mxCell id="2ldc7DW3vHpx0UhSFPCV-226" value="" style="verticalLabelPosition=bottom;html=1;verticalAlign=top;align=center;strokeWidth=1;shape=mxgraph.floorplan.office_chair;shadow=0;rounded=0;comic=0;fontFamily=Verdana;fontSize=12;rotation=90;" vertex="1" parent="2ldc7DW3vHpx0UhSFPCV-225">
          <mxGeometry x="35" y="14" width="40" height="43" as="geometry" />
        </mxCell>
        <mxCell id="2ldc7DW3vHpx0UhSFPCV-227" value="" style="shape=rect;shadow=0;rounded=0;comic=0;fontFamily=Verdana;fontSize=12;align=center;html=1;rotation=90;" vertex="1" parent="2ldc7DW3vHpx0UhSFPCV-225">
          <mxGeometry x="-10" y="10" width="80" height="50" as="geometry" />
        </mxCell>
        <mxCell id="2ldc7DW3vHpx0UhSFPCV-228" value="" style="verticalLabelPosition=bottom;html=1;verticalAlign=top;align=center;strokeWidth=1;shape=mxgraph.floorplan.workstation;shadow=0;flipV=1;rounded=0;comic=0;fontFamily=Verdana;fontSize=12;rotation=90;" vertex="1" parent="2ldc7DW3vHpx0UhSFPCV-225">
          <mxGeometry y="15" width="50" height="40" as="geometry" />
        </mxCell>
        <mxCell id="2ldc7DW3vHpx0UhSFPCV-229" value="" style="verticalLabelPosition=bottom;html=1;verticalAlign=top;align=center;strokeWidth=1;shape=mxgraph.floorplan.dresser;rounded=0;shadow=0;comic=0;fillColor=#FFFFFF;fontFamily=Verdana;fontSize=12;rotation=-90;" vertex="1" parent="1">
          <mxGeometry x="1278" y="177.0000000000001" width="100" height="65" as="geometry" />
        </mxCell>
        <mxCell id="2ldc7DW3vHpx0UhSFPCV-230" value="" style="verticalLabelPosition=bottom;html=1;verticalAlign=top;align=center;strokeWidth=1;shape=mxgraph.floorplan.plant;rounded=0;shadow=0;comic=0;fontFamily=Verdana;fontSize=12;" vertex="1" parent="1">
          <mxGeometry x="1448" y="37.000000000000114" width="47" height="51" as="geometry" />
        </mxCell>
        <mxCell id="2ldc7DW3vHpx0UhSFPCV-231" value="" style="verticalLabelPosition=bottom;html=1;verticalAlign=top;align=center;strokeWidth=1;shape=mxgraph.floorplan.doorRight;rounded=0;shadow=0;comic=0;fontFamily=Verdana;fontSize=12;flipV=1;" vertex="1" parent="1">
          <mxGeometry x="1200" y="182.0000000000001" width="80" height="85" as="geometry" />
        </mxCell>
        <mxCell id="2ldc7DW3vHpx0UhSFPCV-232" value="" style="verticalLabelPosition=bottom;html=1;verticalAlign=top;align=center;strokeWidth=1;shape=mxgraph.floorplan.wall;fillColor=#000000;rounded=0;shadow=0;comic=0;fontFamily=Verdana;fontSize=12;" vertex="1" parent="1">
          <mxGeometry x="1060" y="260.0000000000001" width="140" height="10" as="geometry" />
        </mxCell>
        <mxCell id="2ldc7DW3vHpx0UhSFPCV-233" value="" style="verticalLabelPosition=bottom;html=1;verticalAlign=top;align=center;strokeWidth=1;shape=mxgraph.floorplan.wall;fillColor=#000000;direction=south;rounded=0;shadow=0;comic=0;fontFamily=Verdana;fontSize=12;" vertex="1" parent="1">
          <mxGeometry x="1065" y="24.000000000000114" width="10" height="244" as="geometry" />
        </mxCell>
        <mxCell id="2ldc7DW3vHpx0UhSFPCV-234" value="" style="group;rotation=90;" vertex="1" connectable="0" parent="1">
          <mxGeometry x="1071" y="50.000000000000114" width="80" height="70" as="geometry" />
        </mxCell>
        <mxCell id="2ldc7DW3vHpx0UhSFPCV-235" value="" style="verticalLabelPosition=bottom;html=1;verticalAlign=top;align=center;strokeWidth=1;shape=mxgraph.floorplan.office_chair;shadow=0;rounded=0;comic=0;fontFamily=Verdana;fontSize=12;rotation=90;" vertex="1" parent="2ldc7DW3vHpx0UhSFPCV-234">
          <mxGeometry x="35" y="14" width="40" height="43" as="geometry" />
        </mxCell>
        <mxCell id="2ldc7DW3vHpx0UhSFPCV-236" value="" style="shape=rect;shadow=0;rounded=0;comic=0;fontFamily=Verdana;fontSize=12;align=center;html=1;rotation=90;" vertex="1" parent="2ldc7DW3vHpx0UhSFPCV-234">
          <mxGeometry x="-10" y="10" width="80" height="50" as="geometry" />
        </mxCell>
        <mxCell id="2ldc7DW3vHpx0UhSFPCV-237" value="" style="verticalLabelPosition=bottom;html=1;verticalAlign=top;align=center;strokeWidth=1;shape=mxgraph.floorplan.workstation;shadow=0;flipV=1;rounded=0;comic=0;fontFamily=Verdana;fontSize=12;rotation=90;" vertex="1" parent="2ldc7DW3vHpx0UhSFPCV-234">
          <mxGeometry y="15" width="50" height="40" as="geometry" />
        </mxCell>
        <mxCell id="2ldc7DW3vHpx0UhSFPCV-238" value="" style="verticalLabelPosition=bottom;html=1;verticalAlign=top;align=center;strokeWidth=1;shape=mxgraph.floorplan.dresser;rounded=0;shadow=0;comic=0;fontFamily=Verdana;fontSize=12;rotation=-90;" vertex="1" parent="1">
          <mxGeometry x="1058" y="177.0000000000001" width="100" height="65" as="geometry" />
        </mxCell>
        <mxCell id="2ldc7DW3vHpx0UhSFPCV-239" value="" style="verticalLabelPosition=bottom;html=1;verticalAlign=top;align=center;strokeWidth=1;shape=mxgraph.floorplan.plant;rounded=0;shadow=0;comic=0;fontFamily=Verdana;fontSize=12;" vertex="1" parent="1">
          <mxGeometry x="1228" y="37.000000000000114" width="47" height="51" as="geometry" />
        </mxCell>
        <mxCell id="2ldc7DW3vHpx0UhSFPCV-240" value="" style="verticalLabelPosition=bottom;html=1;verticalAlign=top;align=center;strokeWidth=1;shape=mxgraph.floorplan.doorRight;rounded=0;shadow=0;comic=0;fontFamily=Verdana;fontSize=12;flipV=1;" vertex="1" parent="1">
          <mxGeometry x="979" y="182.0000000000001" width="80" height="85" as="geometry" />
        </mxCell>
        <mxCell id="2ldc7DW3vHpx0UhSFPCV-241" value="" style="verticalLabelPosition=bottom;html=1;verticalAlign=top;align=center;strokeWidth=1;shape=mxgraph.floorplan.wall;fillColor=#000000;rounded=0;shadow=0;comic=0;fontFamily=Verdana;fontSize=12;" vertex="1" parent="1">
          <mxGeometry x="603" y="260.0000000000001" width="375" height="10" as="geometry" />
        </mxCell>
        <mxCell id="2ldc7DW3vHpx0UhSFPCV-242" value="" style="verticalLabelPosition=bottom;html=1;verticalAlign=top;align=center;strokeWidth=1;shape=mxgraph.floorplan.wall;fillColor=#000000;direction=south;rounded=0;shadow=0;comic=0;fontFamily=Verdana;fontSize=12;" vertex="1" parent="1">
          <mxGeometry x="844" y="24.000000000000114" width="10" height="244" as="geometry" />
        </mxCell>
        <mxCell id="2ldc7DW3vHpx0UhSFPCV-243" value="" style="group;rotation=90;" vertex="1" connectable="0" parent="1">
          <mxGeometry x="850" y="50.000000000000114" width="80" height="70" as="geometry" />
        </mxCell>
        <mxCell id="2ldc7DW3vHpx0UhSFPCV-244" value="" style="verticalLabelPosition=bottom;html=1;verticalAlign=top;align=center;strokeWidth=1;shape=mxgraph.floorplan.office_chair;shadow=0;rounded=0;comic=0;fontFamily=Verdana;fontSize=12;rotation=90;" vertex="1" parent="2ldc7DW3vHpx0UhSFPCV-243">
          <mxGeometry x="35" y="14" width="40" height="43" as="geometry" />
        </mxCell>
        <mxCell id="2ldc7DW3vHpx0UhSFPCV-245" value="" style="shape=rect;shadow=0;rounded=0;comic=0;fontFamily=Verdana;fontSize=12;align=center;html=1;rotation=90;" vertex="1" parent="2ldc7DW3vHpx0UhSFPCV-243">
          <mxGeometry x="-10" y="10" width="80" height="50" as="geometry" />
        </mxCell>
        <mxCell id="2ldc7DW3vHpx0UhSFPCV-246" value="" style="verticalLabelPosition=bottom;html=1;verticalAlign=top;align=center;strokeWidth=1;shape=mxgraph.floorplan.workstation;shadow=0;flipV=1;rounded=0;comic=0;fontFamily=Verdana;fontSize=12;rotation=90;" vertex="1" parent="2ldc7DW3vHpx0UhSFPCV-243">
          <mxGeometry y="15" width="50" height="40" as="geometry" />
        </mxCell>
        <mxCell id="2ldc7DW3vHpx0UhSFPCV-247" value="" style="verticalLabelPosition=bottom;html=1;verticalAlign=top;align=center;strokeWidth=1;shape=mxgraph.floorplan.dresser;rounded=0;shadow=0;comic=0;fontFamily=Verdana;fontSize=12;rotation=-90;" vertex="1" parent="1">
          <mxGeometry x="837" y="177.0000000000001" width="100" height="65" as="geometry" />
        </mxCell>
        <mxCell id="2ldc7DW3vHpx0UhSFPCV-248" value="" style="verticalLabelPosition=bottom;html=1;verticalAlign=top;align=center;strokeWidth=1;shape=mxgraph.floorplan.plant;rounded=0;shadow=0;comic=0;fontFamily=Verdana;fontSize=12;" vertex="1" parent="1">
          <mxGeometry x="1007" y="37.000000000000114" width="47" height="51" as="geometry" />
        </mxCell>
        <mxCell id="2ldc7DW3vHpx0UhSFPCV-249" value="" style="verticalLabelPosition=bottom;html=1;verticalAlign=top;align=center;strokeWidth=1;shape=mxgraph.floorplan.wall;fillColor=#000000;rounded=0;shadow=0;comic=0;fontFamily=Verdana;fontSize=12;" vertex="1" parent="1">
          <mxGeometry x="480" y="642.0000000000001" width="340" height="10" as="geometry" />
        </mxCell>
        <mxCell id="2ldc7DW3vHpx0UhSFPCV-250" value="" style="verticalLabelPosition=bottom;html=1;verticalAlign=top;align=center;strokeWidth=1;shape=mxgraph.floorplan.wall;fillColor=#000000;direction=south;rounded=0;shadow=0;comic=0;fontFamily=Verdana;fontSize=12;" vertex="1" parent="1">
          <mxGeometry x="480" y="406.0000000000001" width="10" height="150" as="geometry" />
        </mxCell>
        <mxCell id="2ldc7DW3vHpx0UhSFPCV-251" value="" style="verticalLabelPosition=bottom;html=1;verticalAlign=top;align=center;strokeWidth=1;shape=mxgraph.floorplan.wall;fillColor=#000000;direction=south;rounded=0;shadow=0;comic=0;fontFamily=Verdana;fontSize=12;" vertex="1" parent="1">
          <mxGeometry x="480" y="738.0000000000001" width="10" height="149" as="geometry" />
        </mxCell>
        <mxCell id="2ldc7DW3vHpx0UhSFPCV-252" value="" style="verticalLabelPosition=bottom;html=1;verticalAlign=top;align=center;strokeWidth=1;shape=mxgraph.floorplan.wall;fillColor=#000000;direction=south;rounded=0;shadow=0;comic=0;fontFamily=Verdana;fontSize=12;" vertex="1" parent="1">
          <mxGeometry x="480" y="637.0000000000001" width="10" height="20" as="geometry" />
        </mxCell>
        <mxCell id="2ldc7DW3vHpx0UhSFPCV-253" value="" style="verticalLabelPosition=bottom;html=1;verticalAlign=top;align=center;strokeWidth=1;shape=mxgraph.floorplan.doorLeft;rounded=0;shadow=0;comic=0;fontFamily=Verdana;fontSize=12;rotation=-90;" vertex="1" parent="1">
          <mxGeometry x="485" y="554.0000000000001" width="80" height="85" as="geometry" />
        </mxCell>
        <mxCell id="2ldc7DW3vHpx0UhSFPCV-254" value="" style="verticalLabelPosition=bottom;html=1;verticalAlign=top;align=center;strokeWidth=1;shape=mxgraph.floorplan.doorRight;rounded=0;shadow=0;comic=0;fontFamily=Verdana;fontSize=12;rotation=-90;" vertex="1" parent="1">
          <mxGeometry x="485" y="655.0000000000001" width="80" height="85" as="geometry" />
        </mxCell>
        <mxCell id="2ldc7DW3vHpx0UhSFPCV-255" value="" style="verticalLabelPosition=bottom;html=1;verticalAlign=top;align=center;strokeWidth=1;shape=mxgraph.floorplan.toilet;rounded=0;shadow=0;comic=0;fontFamily=Verdana;fontSize=12;rotation=-90;" vertex="1" parent="1">
          <mxGeometry x="1014" y="431.0000000000001" width="50" height="67" as="geometry" />
        </mxCell>
        <mxCell id="2ldc7DW3vHpx0UhSFPCV-256" value="" style="verticalLabelPosition=bottom;html=1;verticalAlign=top;align=center;strokeWidth=1;shape=mxgraph.floorplan.wall;fillColor=#000000;direction=south;rounded=0;shadow=0;comic=0;fontFamily=Verdana;fontSize=12;" vertex="1" parent="1">
          <mxGeometry x="997" y="415.0000000000001" width="10" height="399" as="geometry" />
        </mxCell>
        <mxCell id="2ldc7DW3vHpx0UhSFPCV-257" value="" style="verticalLabelPosition=bottom;html=1;verticalAlign=top;align=center;strokeWidth=1;shape=mxgraph.floorplan.toilet;rounded=0;shadow=0;comic=0;fontFamily=Verdana;fontSize=12;rotation=-90;" vertex="1" parent="1">
          <mxGeometry x="1016" y="529.0000000000001" width="50" height="67" as="geometry" />
        </mxCell>
        <mxCell id="2ldc7DW3vHpx0UhSFPCV-258" value="" style="verticalLabelPosition=bottom;html=1;verticalAlign=top;align=center;strokeWidth=1;shape=mxgraph.floorplan.wall;fillColor=#000000;rounded=0;shadow=0;comic=0;fontFamily=Verdana;fontSize=12;" vertex="1" parent="1">
          <mxGeometry x="1007" y="508.0000000000001" width="172" height="10" as="geometry" />
        </mxCell>
        <mxCell id="2ldc7DW3vHpx0UhSFPCV-259" value="" style="verticalLabelPosition=bottom;html=1;verticalAlign=top;align=center;strokeWidth=1;shape=mxgraph.floorplan.doorLeft;rounded=0;shadow=0;comic=0;fillColor=#FFFFFF;fontFamily=Verdana;fontSize=12;rotation=90;" vertex="1" parent="1">
          <mxGeometry x="1105" y="421.0000000000001" width="80" height="85" as="geometry" />
        </mxCell>
        <mxCell id="2ldc7DW3vHpx0UhSFPCV-260" value="" style="verticalLabelPosition=bottom;html=1;verticalAlign=top;align=center;strokeWidth=1;shape=mxgraph.floorplan.doorLeft;rounded=0;shadow=0;comic=0;fillColor=#FFFFFF;fontFamily=Verdana;fontSize=12;rotation=90;" vertex="1" parent="1">
          <mxGeometry x="1105" y="520.0000000000001" width="80" height="85" as="geometry" />
        </mxCell>
        <mxCell id="2ldc7DW3vHpx0UhSFPCV-261" value="" style="verticalLabelPosition=bottom;html=1;verticalAlign=top;align=center;strokeWidth=1;shape=mxgraph.floorplan.wallCorner;fillColor=#000000;direction=west;rounded=0;shadow=0;comic=0;fontFamily=Verdana;fontSize=12;" vertex="1" parent="1">
          <mxGeometry x="1000" y="603.0000000000001" width="323" height="14" as="geometry" />
        </mxCell>
        <mxCell id="2ldc7DW3vHpx0UhSFPCV-262" value="" style="verticalLabelPosition=bottom;html=1;verticalAlign=top;align=center;strokeWidth=1;shape=mxgraph.floorplan.wall;fillColor=#000000;direction=south;rounded=0;shadow=0;comic=0;fontFamily=Verdana;fontSize=12;" vertex="1" parent="1">
          <mxGeometry x="1179" y="504.0000000000001" width="10" height="18" as="geometry" />
        </mxCell>
        <mxCell id="2ldc7DW3vHpx0UhSFPCV-263" value="" style="verticalLabelPosition=bottom;html=1;verticalAlign=top;align=center;strokeWidth=1;shape=mxgraph.floorplan.wall;fillColor=#000000;direction=south;rounded=0;shadow=0;comic=0;fontFamily=Verdana;fontSize=12;" vertex="1" parent="1">
          <mxGeometry x="1179" y="414.0000000000001" width="10" height="9" as="geometry" />
        </mxCell>
        <mxCell id="2ldc7DW3vHpx0UhSFPCV-264" value="" style="verticalLabelPosition=bottom;html=1;verticalAlign=top;align=center;strokeWidth=1;shape=mxgraph.floorplan.sink_2;rounded=0;shadow=0;comic=0;fontFamily=Verdana;fontSize=12;rotation=90;" vertex="1" parent="1">
          <mxGeometry x="1275" y="426.0000000000001" width="40" height="35" as="geometry" />
        </mxCell>
        <mxCell id="2ldc7DW3vHpx0UhSFPCV-265" value="" style="verticalLabelPosition=bottom;html=1;verticalAlign=top;align=center;strokeWidth=1;shape=mxgraph.floorplan.sink_2;rounded=0;shadow=0;comic=0;fontFamily=Verdana;fontSize=12;rotation=90;" vertex="1" parent="1">
          <mxGeometry x="1275" y="470.0000000000001" width="40" height="35" as="geometry" />
        </mxCell>
        <mxCell id="2ldc7DW3vHpx0UhSFPCV-266" value="" style="verticalLabelPosition=bottom;html=1;verticalAlign=top;align=center;strokeWidth=1;shape=mxgraph.floorplan.doorRight;rounded=0;shadow=0;comic=0;fontFamily=Verdana;fontSize=12;rotation=90;" vertex="1" parent="1">
          <mxGeometry x="1238" y="520.0000000000001" width="80" height="85" as="geometry" />
        </mxCell>
        <mxCell id="2ldc7DW3vHpx0UhSFPCV-267" value="" style="verticalLabelPosition=bottom;html=1;verticalAlign=top;align=center;strokeWidth=1;shape=mxgraph.floorplan.wallCorner;fillColor=#000000;direction=south;rounded=0;shadow=0;comic=0;fontFamily=Verdana;fontSize=12;" vertex="1" parent="1">
          <mxGeometry x="997" y="408.0000000000001" width="326" height="114" as="geometry" />
        </mxCell>
        <mxCell id="2ldc7DW3vHpx0UhSFPCV-268" value="" style="verticalLabelPosition=bottom;html=1;verticalAlign=top;align=center;strokeWidth=1;shape=mxgraph.floorplan.doorLeft;rounded=0;shadow=0;comic=0;fillColor=#FFFFFF;fontFamily=Verdana;fontSize=12;rotation=90;" vertex="1" parent="1">
          <mxGeometry x="1104" y="617.0000000000001" width="80" height="85" as="geometry" />
        </mxCell>
        <mxCell id="2ldc7DW3vHpx0UhSFPCV-269" value="" style="verticalLabelPosition=bottom;html=1;verticalAlign=top;align=center;strokeWidth=1;shape=mxgraph.floorplan.wall;fillColor=#000000;direction=south;rounded=0;shadow=0;comic=0;fontFamily=Verdana;fontSize=12;" vertex="1" parent="1">
          <mxGeometry x="1179" y="603.0000000000001" width="10" height="16" as="geometry" />
        </mxCell>
        <mxCell id="2ldc7DW3vHpx0UhSFPCV-270" value="" style="verticalLabelPosition=bottom;html=1;verticalAlign=top;align=center;strokeWidth=1;shape=mxgraph.floorplan.wall;fillColor=#000000;rounded=0;shadow=0;comic=0;fontFamily=Verdana;fontSize=12;" vertex="1" parent="1">
          <mxGeometry x="1000" y="703.0000000000001" width="180" height="10" as="geometry" />
        </mxCell>
        <mxCell id="2ldc7DW3vHpx0UhSFPCV-271" value="" style="verticalLabelPosition=bottom;html=1;verticalAlign=top;align=center;strokeWidth=1;shape=mxgraph.floorplan.wall;fillColor=#000000;direction=south;rounded=0;shadow=0;comic=0;fontFamily=Verdana;fontSize=12;" vertex="1" parent="1">
          <mxGeometry x="1179" y="700.0000000000001" width="10" height="18" as="geometry" />
        </mxCell>
        <mxCell id="2ldc7DW3vHpx0UhSFPCV-272" value="" style="verticalLabelPosition=bottom;html=1;verticalAlign=top;align=center;strokeWidth=1;shape=mxgraph.floorplan.doorLeft;rounded=0;shadow=0;comic=0;fillColor=#FFFFFF;fontFamily=Verdana;fontSize=12;rotation=90;" vertex="1" parent="1">
          <mxGeometry x="1104" y="716.0000000000001" width="80" height="85" as="geometry" />
        </mxCell>
        <mxCell id="2ldc7DW3vHpx0UhSFPCV-273" value="" style="verticalLabelPosition=bottom;html=1;verticalAlign=top;align=center;strokeWidth=1;shape=mxgraph.floorplan.wall;fillColor=#000000;direction=south;rounded=0;shadow=0;comic=0;fontFamily=Verdana;fontSize=12;" vertex="1" parent="1">
          <mxGeometry x="1179" y="794.0000000000001" width="10" height="10" as="geometry" />
        </mxCell>
        <mxCell id="2ldc7DW3vHpx0UhSFPCV-274" value="" style="verticalLabelPosition=bottom;html=1;verticalAlign=top;align=center;strokeWidth=1;shape=mxgraph.floorplan.wallCorner;fillColor=#000000;direction=west;rounded=0;shadow=0;comic=0;fontFamily=Verdana;fontSize=12;" vertex="1" parent="1">
          <mxGeometry x="1000" y="702.0000000000001" width="323" height="110" as="geometry" />
        </mxCell>
        <mxCell id="2ldc7DW3vHpx0UhSFPCV-275" value="" style="verticalLabelPosition=bottom;html=1;verticalAlign=top;align=center;strokeWidth=1;shape=mxgraph.floorplan.toilet;rounded=0;shadow=0;comic=0;fontFamily=Verdana;fontSize=12;rotation=-90;" vertex="1" parent="1">
          <mxGeometry x="1016" y="627.0000000000001" width="50" height="67" as="geometry" />
        </mxCell>
        <mxCell id="2ldc7DW3vHpx0UhSFPCV-276" value="" style="verticalLabelPosition=bottom;html=1;verticalAlign=top;align=center;strokeWidth=1;shape=mxgraph.floorplan.toilet;rounded=0;shadow=0;comic=0;fontFamily=Verdana;fontSize=12;rotation=-90;" vertex="1" parent="1">
          <mxGeometry x="1016" y="726.0000000000001" width="50" height="67" as="geometry" />
        </mxCell>
        <mxCell id="2ldc7DW3vHpx0UhSFPCV-277" value="" style="verticalLabelPosition=bottom;html=1;verticalAlign=top;align=center;strokeWidth=1;shape=mxgraph.floorplan.sink_2;rounded=0;shadow=0;comic=0;fontFamily=Verdana;fontSize=12;rotation=90;" vertex="1" parent="1">
          <mxGeometry x="1275" y="719.0000000000001" width="40" height="35" as="geometry" />
        </mxCell>
        <mxCell id="2ldc7DW3vHpx0UhSFPCV-278" value="" style="verticalLabelPosition=bottom;html=1;verticalAlign=top;align=center;strokeWidth=1;shape=mxgraph.floorplan.sink_2;rounded=0;shadow=0;comic=0;fontFamily=Verdana;fontSize=12;rotation=90;" vertex="1" parent="1">
          <mxGeometry x="1275" y="763.0000000000001" width="40" height="35" as="geometry" />
        </mxCell>
        <mxCell id="2ldc7DW3vHpx0UhSFPCV-279" value="" style="verticalLabelPosition=bottom;html=1;verticalAlign=top;align=center;strokeWidth=1;shape=mxgraph.floorplan.doorRight;rounded=0;shadow=0;comic=0;fontFamily=Verdana;fontSize=12;rotation=90;flipV=0;flipH=1;" vertex="1" parent="1">
          <mxGeometry x="1238" y="619.0000000000001" width="80" height="85" as="geometry" />
        </mxCell>
        <mxCell id="2ldc7DW3vHpx0UhSFPCV-280" value="" style="verticalLabelPosition=bottom;html=1;verticalAlign=top;align=center;strokeWidth=1;shape=mxgraph.floorplan.wall;fillColor=#000000;direction=south;rounded=0;shadow=0;comic=0;fontFamily=Verdana;fontSize=12;" vertex="1" parent="1">
          <mxGeometry x="1313" y="611.0000000000001" width="10" height="10" as="geometry" />
        </mxCell>
        <mxCell id="2ldc7DW3vHpx0UhSFPCV-281" value="" style="verticalLabelPosition=bottom;html=1;verticalAlign=top;align=center;strokeWidth=1;shape=mxgraph.floorplan.wall;fillColor=#000000;rounded=0;shadow=0;comic=0;fontFamily=Verdana;fontSize=12;" vertex="1" parent="1">
          <mxGeometry x="1500" y="408.0000000000001" width="220" height="10" as="geometry" />
        </mxCell>
        <mxCell id="2ldc7DW3vHpx0UhSFPCV-282" value="" style="verticalLabelPosition=bottom;html=1;verticalAlign=top;align=center;strokeWidth=1;shape=mxgraph.floorplan.chair;shadow=0;rounded=0;comic=0;fontFamily=Verdana;fontSize=12;" vertex="1" parent="1">
          <mxGeometry x="1601" y="457.0000000000001" width="40" height="52" as="geometry" />
        </mxCell>
        <mxCell id="2ldc7DW3vHpx0UhSFPCV-283" value="" style="verticalLabelPosition=bottom;html=1;verticalAlign=top;align=center;strokeWidth=1;shape=mxgraph.floorplan.chair;shadow=0;direction=west;rounded=0;comic=0;fontFamily=Verdana;fontSize=12;" vertex="1" parent="1">
          <mxGeometry x="1601" y="545.0000000000001" width="40" height="52" as="geometry" />
        </mxCell>
        <mxCell id="2ldc7DW3vHpx0UhSFPCV-284" value="" style="verticalLabelPosition=bottom;html=1;verticalAlign=top;align=center;strokeWidth=1;shape=mxgraph.floorplan.chair;shadow=0;direction=north;rounded=0;comic=0;fontFamily=Verdana;fontSize=12;" vertex="1" parent="1">
          <mxGeometry x="1551" y="507.0000000000001" width="52" height="40" as="geometry" />
        </mxCell>
        <mxCell id="2ldc7DW3vHpx0UhSFPCV-285" value="" style="verticalLabelPosition=bottom;html=1;verticalAlign=top;align=center;strokeWidth=1;shape=mxgraph.floorplan.chair;shadow=0;direction=south;rounded=0;comic=0;fontFamily=Verdana;fontSize=12;" vertex="1" parent="1">
          <mxGeometry x="1639" y="507.0000000000001" width="52" height="40" as="geometry" />
        </mxCell>
        <mxCell id="2ldc7DW3vHpx0UhSFPCV-286" value="" style="shape=ellipse;shadow=0;rounded=0;comic=0;fontFamily=Verdana;fontSize=12;align=center;html=1;" vertex="1" parent="1">
          <mxGeometry x="1571" y="477.0000000000001" width="100" height="100" as="geometry" />
        </mxCell>
        <mxCell id="2ldc7DW3vHpx0UhSFPCV-287" value="" style="verticalLabelPosition=bottom;html=1;verticalAlign=top;align=center;strokeWidth=1;shape=mxgraph.floorplan.chair;shadow=0;rounded=0;comic=0;fontFamily=Verdana;fontSize=12;" vertex="1" parent="1">
          <mxGeometry x="1596" y="646.0000000000001" width="40" height="52" as="geometry" />
        </mxCell>
        <mxCell id="2ldc7DW3vHpx0UhSFPCV-288" value="" style="verticalLabelPosition=bottom;html=1;verticalAlign=top;align=center;strokeWidth=1;shape=mxgraph.floorplan.chair;shadow=0;direction=west;rounded=0;comic=0;fontFamily=Verdana;fontSize=12;" vertex="1" parent="1">
          <mxGeometry x="1596" y="734.0000000000001" width="40" height="52" as="geometry" />
        </mxCell>
        <mxCell id="2ldc7DW3vHpx0UhSFPCV-289" value="" style="verticalLabelPosition=bottom;html=1;verticalAlign=top;align=center;strokeWidth=1;shape=mxgraph.floorplan.chair;shadow=0;direction=north;rounded=0;comic=0;fontFamily=Verdana;fontSize=12;" vertex="1" parent="1">
          <mxGeometry x="1546" y="696.0000000000001" width="52" height="40" as="geometry" />
        </mxCell>
        <mxCell id="2ldc7DW3vHpx0UhSFPCV-290" value="" style="verticalLabelPosition=bottom;html=1;verticalAlign=top;align=center;strokeWidth=1;shape=mxgraph.floorplan.chair;shadow=0;direction=south;rounded=0;comic=0;fontFamily=Verdana;fontSize=12;" vertex="1" parent="1">
          <mxGeometry x="1634" y="696.0000000000001" width="52" height="40" as="geometry" />
        </mxCell>
        <mxCell id="2ldc7DW3vHpx0UhSFPCV-291" value="" style="shape=ellipse;shadow=0;rounded=0;comic=0;fontFamily=Verdana;fontSize=12;align=center;html=1;" vertex="1" parent="1">
          <mxGeometry x="1566" y="666.0000000000001" width="100" height="100" as="geometry" />
        </mxCell>
        <mxCell id="2ldc7DW3vHpx0UhSFPCV-292" value="" style="verticalLabelPosition=bottom;html=1;verticalAlign=top;align=center;strokeWidth=1;shape=mxgraph.floorplan.refrigerator;rounded=0;shadow=0;comic=0;fontFamily=Verdana;fontSize=12;rotation=90;flipV=0;flipH=1;" vertex="1" parent="1">
          <mxGeometry x="2050" y="479.0000000000001" width="60" height="62" as="geometry" />
        </mxCell>
        <mxCell id="2ldc7DW3vHpx0UhSFPCV-293" value="" style="verticalLabelPosition=bottom;html=1;verticalAlign=top;align=center;strokeWidth=1;shape=mxgraph.floorplan.refrigerator;rounded=0;shadow=0;comic=0;fontFamily=Verdana;fontSize=12;rotation=90;" vertex="1" parent="1">
          <mxGeometry x="2050" y="419.0000000000001" width="60" height="62" as="geometry" />
        </mxCell>
        <mxCell id="2ldc7DW3vHpx0UhSFPCV-294" value="" style="verticalLabelPosition=bottom;html=1;verticalAlign=top;align=center;strokeWidth=1;shape=mxgraph.floorplan.range_2;rounded=0;shadow=0;comic=0;fontFamily=Verdana;fontSize=12;rotation=90;" vertex="1" parent="1">
          <mxGeometry x="2043" y="548.0000000000001" width="75" height="62" as="geometry" />
        </mxCell>
        <mxCell id="2ldc7DW3vHpx0UhSFPCV-295" value="" style="verticalLabelPosition=bottom;html=1;verticalAlign=top;align=center;strokeWidth=1;shape=mxgraph.floorplan.sink_double;rounded=0;shadow=0;comic=0;fontFamily=Verdana;fontSize=12;flipV=1;" vertex="1" parent="1">
          <mxGeometry x="1919" y="665.0000000000001" width="80" height="35" as="geometry" />
        </mxCell>
        <mxCell id="2ldc7DW3vHpx0UhSFPCV-296" value="" style="verticalLabelPosition=bottom;html=1;verticalAlign=top;align=center;strokeWidth=1;shape=mxgraph.floorplan.dresser;rounded=0;shadow=0;comic=0;fontFamily=Verdana;fontSize=12;flipV=1;" vertex="1" parent="1">
          <mxGeometry x="1819" y="649.0000000000001" width="100" height="65" as="geometry" />
        </mxCell>
        <mxCell id="2ldc7DW3vHpx0UhSFPCV-297" value="" style="verticalLabelPosition=bottom;html=1;verticalAlign=top;align=center;strokeWidth=1;shape=mxgraph.floorplan.wallCorner;fillColor=#000000;direction=north;rounded=0;shadow=0;comic=0;fontFamily=Verdana;fontSize=12;" vertex="1" parent="1">
          <mxGeometry x="1808" y="594.0000000000001" width="312" height="120" as="geometry" />
        </mxCell>
        <mxCell id="2ldc7DW3vHpx0UhSFPCV-298" value="" style="verticalLabelPosition=bottom;html=1;verticalAlign=top;align=center;strokeWidth=1;shape=mxgraph.floorplan.doorLeft;rounded=0;shadow=0;comic=0;fontFamily=Verdana;fontSize=12;" vertex="1" parent="1">
          <mxGeometry x="1821" y="410.0000000000001" width="80" height="85" as="geometry" />
        </mxCell>
        <mxCell id="2ldc7DW3vHpx0UhSFPCV-299" value="" style="verticalLabelPosition=bottom;html=1;verticalAlign=top;align=center;strokeWidth=1;shape=mxgraph.floorplan.doorRight;rounded=0;shadow=0;comic=0;fontFamily=Verdana;fontSize=12;rotation=-90;" vertex="1" parent="1">
          <mxGeometry x="1813" y="511.0000000000001" width="80" height="85" as="geometry" />
        </mxCell>
        <mxCell id="2ldc7DW3vHpx0UhSFPCV-300" value="" style="verticalLabelPosition=bottom;html=1;verticalAlign=top;align=center;strokeWidth=1;shape=mxgraph.floorplan.doorRight;rounded=0;shadow=0;comic=0;fontFamily=Verdana;fontSize=12;rotation=-90;" vertex="1" parent="1">
          <mxGeometry x="1949" y="718.0000000000001" width="80" height="78" as="geometry" />
        </mxCell>
        <mxCell id="2ldc7DW3vHpx0UhSFPCV-301" value="" style="verticalLabelPosition=bottom;html=1;verticalAlign=top;align=center;strokeWidth=1;shape=mxgraph.floorplan.sink_1;rounded=0;shadow=0;comic=0;fontFamily=Verdana;fontSize=12;rotation=90;" vertex="1" parent="1">
          <mxGeometry x="2074" y="738.0000000000001" width="40" height="35" as="geometry" />
        </mxCell>
        <mxCell id="2ldc7DW3vHpx0UhSFPCV-302" value="" style="verticalLabelPosition=bottom;html=1;verticalAlign=top;align=center;strokeWidth=1;shape=mxgraph.floorplan.wall;fillColor=#000000;rounded=0;shadow=0;comic=0;fontFamily=Verdana;fontSize=12;" vertex="1" parent="1">
          <mxGeometry x="1801" y="408.0000000000001" width="20" height="10" as="geometry" />
        </mxCell>
        <mxCell id="2ldc7DW3vHpx0UhSFPCV-303" value="" style="verticalLabelPosition=bottom;html=1;verticalAlign=top;align=center;strokeWidth=1;shape=mxgraph.floorplan.doorRight;rounded=0;shadow=0;comic=0;fontFamily=Verdana;fontSize=12;" vertex="1" parent="1">
          <mxGeometry x="1721" y="410.0000000000001" width="80" height="85" as="geometry" />
        </mxCell>
        <mxCell id="2ldc7DW3vHpx0UhSFPCV-304" value="" style="verticalLabelPosition=bottom;html=1;verticalAlign=top;align=center;strokeWidth=1;shape=mxgraph.floorplan.wall;fillColor=#000000;direction=south;rounded=0;shadow=0;comic=0;fontFamily=Verdana;fontSize=12;" vertex="1" parent="1">
          <mxGeometry x="1808" y="414.0000000000001" width="10" height="100" as="geometry" />
        </mxCell>
        <mxCell id="2ldc7DW3vHpx0UhSFPCV-305" value="" style="verticalLabelPosition=bottom;html=1;verticalAlign=top;align=center;strokeWidth=1;shape=mxgraph.floorplan.wall;fillColor=#000000;direction=south;rounded=0;shadow=0;comic=0;fontFamily=Verdana;fontSize=12;" vertex="1" parent="1">
          <mxGeometry x="1947" y="704.0000000000001" width="10" height="13" as="geometry" />
        </mxCell>
        <mxCell id="2ldc7DW3vHpx0UhSFPCV-306" value="" style="verticalLabelPosition=bottom;html=1;verticalAlign=top;align=center;strokeWidth=1;shape=mxgraph.floorplan.wall;fillColor=#000000;direction=south;rounded=0;shadow=0;comic=0;fontFamily=Verdana;fontSize=12;" vertex="1" parent="1">
          <mxGeometry x="1948" y="797.0000000000001" width="10" height="13" as="geometry" />
        </mxCell>
        <mxCell id="2ldc7DW3vHpx0UhSFPCV-307" value="" style="verticalLabelPosition=bottom;html=1;verticalAlign=top;align=center;strokeWidth=1;shape=mxgraph.floorplan.office_chair;shadow=0;rounded=0;comic=0;fontFamily=Verdana;fontSize=12;" vertex="1" parent="1">
          <mxGeometry x="1014" y="1149" width="40" height="43" as="geometry" />
        </mxCell>
        <mxCell id="2ldc7DW3vHpx0UhSFPCV-308" value="" style="shape=rect;shadow=0;rounded=0;comic=0;fontFamily=Verdana;fontSize=12;align=center;html=1;" vertex="1" parent="1">
          <mxGeometry x="994" y="1169" width="80" height="50" as="geometry" />
        </mxCell>
        <mxCell id="2ldc7DW3vHpx0UhSFPCV-309" value="" style="verticalLabelPosition=bottom;html=1;verticalAlign=top;align=center;strokeWidth=1;shape=mxgraph.floorplan.workstation;shadow=0;flipV=1;rounded=0;comic=0;fontFamily=Verdana;fontSize=12;" vertex="1" parent="1">
          <mxGeometry x="1009" y="1179" width="50" height="40" as="geometry" />
        </mxCell>
      </root>
    </mxGraphModel>
  </diagram>
</mxfile>
